<svg width="1128" height="70" viewBox="0 0 1128 70" fill="none" xmlns="http://www.w3.org/2000/svg">
<path d="M1.76847 28V24.6761L9.5348 17.4851C10.1953 16.8459 10.7493 16.2706 11.1967 15.7592C11.6513 15.2479 11.9957 14.7472 12.2301 14.2571C12.4645 13.7599 12.5817 13.2237 12.5817 12.6484C12.5817 12.0092 12.4361 11.4588 12.1449 10.9972C11.8537 10.5284 11.456 10.1697 10.9517 9.92116C10.4474 9.66548 9.87571 9.53764 9.23651 9.53764C8.56889 9.53764 7.98651 9.67259 7.48935 9.94247C6.99219 10.2124 6.60866 10.5994 6.33878 11.1037C6.06889 11.608 5.93395 12.2081 5.93395 12.9041H1.5554C1.5554 11.4766 1.87855 10.2372 2.52486 9.18608C3.17116 8.13494 4.0767 7.32173 5.24148 6.74645C6.40625 6.17116 7.74858 5.88352 9.26847 5.88352C10.831 5.88352 12.1911 6.16051 13.3487 6.71449C14.5135 7.26136 15.419 8.02131 16.0653 8.99432C16.7116 9.96733 17.0348 11.0824 17.0348 12.3395C17.0348 13.1634 16.8714 13.9766 16.5447 14.7791C16.2251 15.5817 15.6534 16.473 14.8295 17.4531C14.0057 18.4261 12.8445 19.5945 11.3459 20.9581L8.16051 24.0795V24.2287H17.3224V28H1.76847ZM28.6337 28.2983C27.128 28.2983 25.7857 28.0213 24.6067 27.4673C23.4348 26.9134 22.5044 26.1499 21.8155 25.1768C21.1266 24.2038 20.7679 23.0888 20.7395 21.8317H25.214C25.2637 22.6768 25.6188 23.3622 26.2793 23.8878C26.9398 24.4134 27.7246 24.6761 28.6337 24.6761C29.3581 24.6761 29.9973 24.5163 30.5513 24.1967C31.1124 23.87 31.5492 23.419 31.8617 22.8438C32.1813 22.2614 32.3411 21.5937 32.3411 20.8409C32.3411 20.0739 32.1777 19.3991 31.851 18.8168C31.5314 18.2344 31.0875 17.7798 30.5194 17.4531C29.9512 17.1264 29.3013 16.9595 28.5698 16.9524C27.9306 16.9524 27.3091 17.0838 26.7054 17.3466C26.1088 17.6094 25.6436 17.968 25.3098 18.4226L21.2083 17.6875L22.2417 6.18182H35.5797V9.95312H26.0449L25.4803 15.4183H25.6081C25.9917 14.8786 26.5705 14.4311 27.3446 14.076C28.1188 13.7209 28.9853 13.5433 29.9441 13.5433C31.258 13.5433 32.4299 13.8523 33.4597 14.4702C34.4895 15.0881 35.3027 15.9368 35.8993 17.0163C36.4959 18.0888 36.7907 19.3246 36.7836 20.7237C36.7907 22.1939 36.4498 23.5007 35.7608 24.6442C35.079 25.7805 34.1238 26.6754 32.8951 27.3288C31.6735 27.9751 30.253 28.2983 28.6337 28.2983ZM48.5556 28.4794C46.7232 28.4723 45.1465 28.0213 43.8255 27.1264C42.5115 26.2315 41.4995 24.9354 40.7892 23.2379C40.0861 21.5405 39.7381 19.4986 39.7452 17.1122C39.7452 14.733 40.0968 12.7053 40.7999 11.0291C41.5101 9.35298 42.5222 8.07812 43.8361 7.20455C45.1571 6.32386 46.7303 5.88352 48.5556 5.88352C50.3809 5.88352 51.9505 6.32386 53.2644 7.20455C54.5854 8.08523 55.601 9.36364 56.3113 11.0398C57.0215 12.7088 57.373 14.733 57.3659 17.1122C57.3659 19.5057 57.0108 21.5511 56.3006 23.2486C55.5975 24.946 54.589 26.2422 53.275 27.1371C51.9611 28.032 50.388 28.4794 48.5556 28.4794ZM48.5556 24.6548C49.8056 24.6548 50.8034 24.0263 51.5492 22.7692C52.2949 21.5121 52.6642 19.6264 52.6571 17.1122C52.6571 15.4574 52.4867 14.0795 52.1458 12.9787C51.812 11.8778 51.3361 11.0504 50.7182 10.4964C50.1074 9.94247 49.3865 9.66548 48.5556 9.66548C47.3127 9.66548 46.3184 10.2869 45.5726 11.5298C44.8269 12.7727 44.4505 14.6335 44.4434 17.1122C44.4434 18.7884 44.6103 20.1875 44.9441 21.3097C45.285 22.4247 45.7644 23.2628 46.3823 23.8239C47.0002 24.3778 47.7246 24.6548 48.5556 24.6548ZM67.1751 24.6761V9.59091H70.989V24.6761H67.1751ZM61.5394 19.0405V15.2266H76.6246V19.0405H61.5394Z" fill="#7F56D9"/>
<path d="M16.6548 49.5H14.9858C14.8615 48.8786 14.6366 48.3045 14.3111 47.7777C13.9915 47.245 13.589 46.7804 13.1037 46.3839C12.6184 45.9873 12.0679 45.6796 11.4524 45.4606C10.8369 45.2416 10.171 45.1321 9.4549 45.1321C8.3067 45.1321 7.25912 45.431 6.31215 46.0288C5.37109 46.6265 4.61648 47.5054 4.0483 48.6655C3.48603 49.8196 3.2049 51.2341 3.2049 52.9091C3.2049 54.5959 3.48603 56.0163 4.0483 57.1705C4.61648 58.3246 5.37109 59.2005 6.31215 59.7983C7.25912 60.3902 8.3067 60.6861 9.4549 60.6861C10.171 60.6861 10.8369 60.5766 11.4524 60.3576C12.0679 60.1386 12.6184 59.8338 13.1037 59.4432C13.589 59.0466 13.9915 58.582 14.3111 58.0494C14.6366 57.5167 14.8615 56.9396 14.9858 56.3182H16.6548C16.5069 57.1527 16.2287 57.931 15.8203 58.6531C15.4179 59.3692 14.9029 59.9966 14.2756 60.5352C13.6541 61.0737 12.938 61.494 12.1271 61.7958C11.3163 62.0977 10.4255 62.2486 9.4549 62.2486C7.92791 62.2486 6.57256 61.8668 5.38885 61.1033C4.20514 60.3339 3.27592 59.2508 2.60121 57.854C1.93241 56.4573 1.59801 54.8089 1.59801 52.9091C1.59801 51.0092 1.93241 49.3609 2.60121 47.9641C3.27592 46.5674 4.20514 45.4872 5.38885 44.7237C6.57256 43.9543 7.92791 43.5696 9.4549 43.5696C10.4255 43.5696 11.3163 43.7205 12.1271 44.0224C12.938 44.3183 13.6541 44.7385 14.2756 45.283C14.9029 45.8216 15.4179 46.449 15.8203 47.1651C16.2287 47.8813 16.5069 48.6596 16.6548 49.5ZM25.526 62.2841C24.3482 62.2841 23.3066 61.9852 22.401 61.3874C21.5014 60.7897 20.7971 59.964 20.2881 58.9105C19.7791 57.8511 19.5246 56.6289 19.5246 55.244C19.5246 53.8472 19.7791 52.6191 20.2881 51.5597C20.7971 50.4943 21.5014 49.6657 22.401 49.0739C23.3066 48.4761 24.3482 48.1772 25.526 48.1772C26.7038 48.1772 27.7425 48.4761 28.6421 49.0739C29.5418 49.6716 30.2461 50.5002 30.7551 51.5597C31.27 52.6191 31.5274 53.8472 31.5274 55.244C31.5274 56.6289 31.2729 57.8511 30.7639 58.9105C30.2549 59.964 29.5477 60.7897 28.6421 61.3874C27.7425 61.9852 26.7038 62.2841 25.526 62.2841ZM25.526 60.837C26.473 60.837 27.2749 60.5825 27.9319 60.0735C28.5889 59.5645 29.086 58.8868 29.4234 58.0405C29.7667 57.1941 29.9383 56.262 29.9383 55.244C29.9383 54.226 29.7667 53.2908 29.4234 52.4386C29.086 51.5863 28.5889 50.9027 27.9319 50.3878C27.2749 49.8729 26.473 49.6154 25.526 49.6154C24.585 49.6154 23.783 49.8729 23.1201 50.3878C22.4632 50.9027 21.963 51.5863 21.6198 52.4386C21.2824 53.2908 21.1137 54.226 21.1137 55.244C21.1137 56.262 21.2824 57.1941 21.6198 58.0405C21.963 58.8868 22.4632 59.5645 23.1201 60.0735C23.7771 60.5825 24.579 60.837 25.526 60.837ZM36.5767 43.8182V62H34.9964V43.8182H36.5767ZM42.3384 43.8182V62H40.7582V43.8182H42.3384ZM50.3285 62.3107C49.5058 62.3107 48.7541 62.1509 48.0735 61.8313C47.3929 61.5058 46.8513 61.0382 46.4489 60.4286C46.0464 59.8131 45.8452 59.0674 45.8452 58.1914C45.8452 57.5167 45.9724 56.9485 46.2269 56.4869C46.4814 56.0252 46.8424 55.6464 47.31 55.3505C47.7776 55.0546 48.331 54.8208 48.9702 54.6491C49.6094 54.4775 50.3137 54.3443 51.0831 54.2496C51.8466 54.1549 52.4917 54.0721 53.0185 54.0011C53.5511 53.93 53.9566 53.8176 54.2347 53.6637C54.5129 53.5098 54.652 53.2612 54.652 52.918V52.5984C54.652 51.6692 54.3738 50.9382 53.8175 50.4055C53.267 49.867 52.474 49.5977 51.4382 49.5977C50.4557 49.5977 49.6538 49.8137 49.0323 50.2457C48.4168 50.6778 47.9847 51.1868 47.7362 51.7727L46.2358 51.2312C46.5436 50.4854 46.9697 49.8906 47.5142 49.4467C48.0587 48.9969 48.6683 48.6744 49.343 48.479C50.0178 48.2778 50.7013 48.1772 51.3938 48.1772C51.9147 48.1772 52.4562 48.2453 53.0185 48.3814C53.5866 48.5175 54.1134 48.7543 54.5987 49.0916C55.084 49.4231 55.4776 49.8877 55.7795 50.4854C56.0813 51.0773 56.2322 51.829 56.2322 52.7404V62H54.652V59.8427H54.5543C54.3649 60.2451 54.0838 60.6358 53.7109 61.0146C53.3381 61.3933 52.8705 61.7041 52.3082 61.9467C51.746 62.1894 51.0861 62.3107 50.3285 62.3107ZM50.5415 60.8636C51.382 60.8636 52.11 60.6772 52.7255 60.3043C53.341 59.9315 53.8145 59.4373 54.146 58.8217C54.4833 58.2003 54.652 57.5167 54.652 56.771V54.8001C54.5336 54.9125 54.3353 55.0131 54.0572 55.1019C53.7849 55.1907 53.4683 55.2706 53.1072 55.3416C52.7521 55.4067 52.397 55.4629 52.0419 55.5103C51.6868 55.5576 51.3672 55.5991 51.0831 55.6346C50.3137 55.7293 49.6567 55.8772 49.1122 56.0785C48.5677 56.2797 48.1504 56.5579 47.8604 56.913C47.5704 57.2622 47.4254 57.712 47.4254 58.2624C47.4254 59.091 47.7214 59.7332 48.3132 60.1889C48.9051 60.6387 49.6478 60.8636 50.5415 60.8636ZM60.7644 62V43.8182H62.3535V50.9648H62.4956C62.6731 50.5565 62.9276 50.1362 63.2591 49.7042C63.5964 49.2721 64.0373 48.9111 64.5819 48.6211C65.1323 48.3252 65.8248 48.1772 66.6593 48.1772C67.7779 48.1772 68.7604 48.4731 69.6067 49.065C70.4531 49.6509 71.113 50.4736 71.5865 51.533C72.06 52.5865 72.2967 53.8146 72.2967 55.2173C72.2967 56.6259 72.06 57.86 71.5865 58.9194C71.1189 59.9788 70.4619 60.8045 69.6156 61.3963C68.7752 61.9882 67.7986 62.2841 66.6859 62.2841C65.8573 62.2841 65.1648 62.1361 64.6085 61.8402C64.0581 61.5443 63.6142 61.1803 63.2768 60.7482C62.9395 60.3103 62.679 59.8841 62.4956 59.4698H62.3002V62H60.7644ZM62.3269 55.1907C62.3269 56.2915 62.4896 57.2681 62.8152 58.1204C63.1466 58.9667 63.6201 59.6326 64.2356 60.1179C64.8571 60.5973 65.6087 60.837 66.4906 60.837C67.3961 60.837 68.1626 60.5884 68.79 60.0913C69.4173 59.5882 69.8938 58.9105 70.2193 58.0582C70.5448 57.206 70.7076 56.2501 70.7076 55.1907C70.7076 54.1431 70.5448 53.1991 70.2193 52.3587C69.8997 51.5182 69.4262 50.8524 68.7988 50.3612C68.1715 49.864 67.402 49.6154 66.4906 49.6154C65.6028 49.6154 64.8482 49.8551 64.2267 50.3345C63.6112 50.808 63.1407 51.465 62.8152 52.3054C62.4896 53.1399 62.3269 54.1017 62.3269 55.1907ZM81.068 62.2841C79.8902 62.2841 78.8485 61.9852 77.943 61.3874C77.0434 60.7897 76.3391 59.964 75.8301 58.9105C75.3211 57.8511 75.0666 56.6289 75.0666 55.244C75.0666 53.8472 75.3211 52.6191 75.8301 51.5597C76.3391 50.4943 77.0434 49.6657 77.943 49.0739C78.8485 48.4761 79.8902 48.1772 81.068 48.1772C82.2458 48.1772 83.2845 48.4761 84.1841 49.0739C85.0837 49.6716 85.7881 50.5002 86.2971 51.5597C86.812 52.6191 87.0694 53.8472 87.0694 55.244C87.0694 56.6289 86.8149 57.8511 86.3059 58.9105C85.7969 59.964 85.0897 60.7897 84.1841 61.3874C83.2845 61.9852 82.2458 62.2841 81.068 62.2841ZM81.068 60.837C82.015 60.837 82.8169 60.5825 83.4739 60.0735C84.1309 59.5645 84.628 58.8868 84.9654 58.0405C85.3087 57.1941 85.4803 56.262 85.4803 55.244C85.4803 54.226 85.3087 53.2908 84.9654 52.4386C84.628 51.5863 84.1309 50.9027 83.4739 50.3878C82.8169 49.8729 82.015 49.6154 81.068 49.6154C80.127 49.6154 79.325 49.8729 78.6621 50.3878C78.0051 50.9027 77.505 51.5863 77.1618 52.4386C76.8244 53.2908 76.6557 54.226 76.6557 55.244C76.6557 56.262 76.8244 57.1941 77.1618 58.0405C77.505 58.8868 78.0051 59.5645 78.6621 60.0735C79.3191 60.5825 80.121 60.837 81.068 60.837ZM90.5384 62V48.3636H92.0743V50.4588H92.1897C92.462 49.7723 92.9355 49.2189 93.6102 48.7987C94.2908 48.3725 95.0602 48.1594 95.9184 48.1594C96.0486 48.1594 96.1936 48.1624 96.3534 48.1683C96.5132 48.1742 96.6464 48.1802 96.7529 48.1861V49.793C96.6819 49.7811 96.5576 49.7634 96.3801 49.7397C96.2025 49.716 96.0102 49.7042 95.803 49.7042C95.0928 49.7042 94.4595 49.8551 93.9031 50.157C93.3527 50.4529 92.9177 50.8642 92.5981 51.391C92.2785 51.9177 92.1187 52.5185 92.1187 53.1932V62H90.5384ZM103.258 62.3107C102.435 62.3107 101.684 62.1509 101.003 61.8313C100.323 61.5058 99.781 61.0382 99.3786 60.4286C98.9761 59.8131 98.7749 59.0674 98.7749 58.1914C98.7749 57.5167 98.9021 56.9485 99.1566 56.4869C99.4111 56.0252 99.7721 55.6464 100.24 55.3505C100.707 55.0546 101.261 54.8208 101.9 54.6491C102.539 54.4775 103.243 54.3443 104.013 54.2496C104.776 54.1549 105.421 54.0721 105.948 54.0011C106.481 53.93 106.886 53.8176 107.164 53.6637C107.443 53.5098 107.582 53.2612 107.582 52.918V52.5984C107.582 51.6692 107.304 50.9382 106.747 50.4055C106.197 49.867 105.404 49.5977 104.368 49.5977C103.385 49.5977 102.583 49.8137 101.962 50.2457C101.346 50.6778 100.914 51.1868 100.666 51.7727L99.1655 51.2312C99.4732 50.4854 99.8994 49.8906 100.444 49.4467C100.988 48.9969 101.598 48.6744 102.273 48.479C102.947 48.2778 103.631 48.1772 104.324 48.1772C104.844 48.1772 105.386 48.2453 105.948 48.3814C106.516 48.5175 107.043 48.7543 107.528 49.0916C108.014 49.4231 108.407 49.8877 108.709 50.4854C109.011 51.0773 109.162 51.829 109.162 52.7404V62H107.582V59.8427H107.484C107.295 60.2451 107.013 60.6358 106.641 61.0146C106.268 61.3933 105.8 61.7041 105.238 61.9467C104.676 62.1894 104.016 62.3107 103.258 62.3107ZM103.471 60.8636C104.312 60.8636 105.04 60.6772 105.655 60.3043C106.271 59.9315 106.744 59.4373 107.076 58.8217C107.413 58.2003 107.582 57.5167 107.582 56.771V54.8001C107.463 54.9125 107.265 55.0131 106.987 55.1019C106.715 55.1907 106.398 55.2706 106.037 55.3416C105.682 55.4067 105.327 55.4629 104.972 55.5103C104.616 55.5576 104.297 55.5991 104.013 55.6346C103.243 55.7293 102.586 55.8772 102.042 56.0785C101.497 56.2797 101.08 56.5579 100.79 56.913C100.5 57.2622 100.355 57.712 100.355 58.2624C100.355 59.091 100.651 59.7332 101.243 60.1889C101.835 60.6387 102.578 60.8636 103.471 60.8636ZM118.737 48.3636V49.7397H112.229V48.3636H118.737ZM114.262 45.0966H115.851V58.44C115.851 59.0082 115.949 59.455 116.144 59.7805C116.34 60.1001 116.594 60.328 116.908 60.4641C117.222 60.5943 117.556 60.6594 117.911 60.6594C118.118 60.6594 118.296 60.6476 118.444 60.6239C118.592 60.5943 118.722 60.5647 118.834 60.5352L119.172 61.9645C119.018 62.0237 118.828 62.0769 118.604 62.1243C118.379 62.1776 118.1 62.2042 117.769 62.2042C117.189 62.2042 116.63 62.0769 116.091 61.8224C115.558 61.5679 115.12 61.1892 114.777 60.6861C114.434 60.183 114.262 59.5586 114.262 58.8129V45.0966ZM122.343 62V48.3636H123.932V62H122.343ZM123.151 46.0199C122.826 46.0199 122.547 45.9104 122.317 45.6914C122.086 45.4665 121.97 45.1972 121.97 44.8835C121.97 44.5698 122.086 44.3035 122.317 44.0845C122.547 43.8596 122.826 43.7472 123.151 43.7472C123.477 43.7472 123.755 43.8596 123.986 44.0845C124.217 44.3035 124.332 44.5698 124.332 44.8835C124.332 45.1972 124.217 45.4665 123.986 45.6914C123.755 45.9104 123.477 46.0199 123.151 46.0199ZM133.412 62.2841C132.234 62.2841 131.192 61.9852 130.287 61.3874C129.387 60.7897 128.683 59.964 128.174 58.9105C127.665 57.8511 127.41 56.6289 127.41 55.244C127.41 53.8472 127.665 52.6191 128.174 51.5597C128.683 50.4943 129.387 49.6657 130.287 49.0739C131.192 48.4761 132.234 48.1772 133.412 48.1772C134.59 48.1772 135.628 48.4761 136.528 49.0739C137.427 49.6716 138.132 50.5002 138.641 51.5597C139.156 52.6191 139.413 53.8472 139.413 55.244C139.413 56.6289 139.159 57.8511 138.65 58.9105C138.141 59.964 137.433 60.7897 136.528 61.3874C135.628 61.9852 134.59 62.2841 133.412 62.2841ZM133.412 60.837C134.359 60.837 135.161 60.5825 135.818 60.0735C136.475 59.5645 136.972 58.8868 137.309 58.0405C137.652 57.1941 137.824 56.262 137.824 55.244C137.824 54.226 137.652 53.2908 137.309 52.4386C136.972 51.5863 136.475 50.9027 135.818 50.3878C135.161 49.8729 134.359 49.6154 133.412 49.6154C132.471 49.6154 131.669 49.8729 131.006 50.3878C130.349 50.9027 129.849 51.5863 129.506 52.4386C129.168 53.2908 128.999 54.226 128.999 55.244C128.999 56.262 129.168 57.1941 129.506 58.0405C129.849 58.8868 130.349 59.5645 131.006 60.0735C131.663 60.5825 132.465 60.837 133.412 60.837ZM144.462 53.4773V62H142.882V48.3636H144.418V50.5032H144.56C144.88 49.8048 145.377 49.2455 146.052 48.8253C146.732 48.3991 147.573 48.1861 148.573 48.1861C149.49 48.1861 150.295 48.3784 150.988 48.7631C151.686 49.1419 152.228 49.7012 152.612 50.4411C153.003 51.1809 153.198 52.0894 153.198 53.1665V62H151.618V53.2642C151.618 52.1456 151.304 51.2608 150.677 50.6097C150.055 49.9587 149.221 49.6332 148.173 49.6332C147.457 49.6332 146.821 49.787 146.265 50.0948C145.708 50.4026 145.267 50.8465 144.942 51.4265C144.622 52.0006 144.462 52.6842 144.462 53.4773Z" fill="#101828"/>
<path d="M366.037 35C366.037 29.3072 370.36 25.2952 376.088 25.2952C381.816 25.2952 386.138 29.3072 386.138 35C386.138 40.6928 381.816 44.7048 376.088 44.7048C370.36 44.7048 366.037 40.6385 366.037 35ZM380.465 35C380.465 32.3434 378.789 30.3916 376.142 30.3916C373.494 30.3916 371.819 32.3434 371.819 35C371.819 37.6566 373.494 39.6084 376.142 39.6084C378.789 39.6084 380.465 37.7108 380.465 35ZM362.254 30.5C362.633 31.259 362.795 32.0723 362.795 32.9397C362.795 35 361.714 36.8976 359.985 38.3615C362.363 39.5 363.767 42.265 363.767 44.8675C363.767 49.747 359.823 53 353.825 53C347.827 53 343.882 49.8013 343.882 44.8675C343.828 42.1567 345.287 39.6627 347.665 38.3615C345.881 36.8976 344.855 35 344.855 32.9397C344.855 28.6566 348.205 25.512 353.5 25.512C356.635 25.512 357.553 26.0542 359.336 26.0542C360.525 26.1084 361.768 25.7831 362.795 25.1325C363.173 24.9157 363.551 24.753 363.984 24.753C364.686 24.753 365.064 25.4578 365.064 26.3253C365.227 28.2229 364.038 29.9036 362.254 30.5ZM358.202 44.7048C358.202 42.5363 356.527 41.0181 353.879 41.0181C351.231 41.0181 349.556 42.482 349.556 44.7048C349.556 46.765 351.393 48.3915 353.879 48.3915C356.364 48.3915 358.202 46.765 358.202 44.7048ZM350.366 33.2651C350.421 35.1627 352.042 36.6807 353.987 36.6265C355.824 36.5723 357.229 35.1084 357.337 33.2651C357.337 31.3133 355.932 29.9578 353.879 29.9578C351.826 29.9578 350.366 31.259 350.366 33.2651ZM341.288 35.3795V42.1567C341.288 43.4578 340.802 44 339.397 44H337.506C336.101 44 335.615 43.4578 335.615 42.1567V35.5422C335.615 33.8615 335.344 32.6687 334.75 31.9096C334.048 31.0422 332.967 30.6084 331.886 30.6627C330.751 30.6084 329.671 31.0964 328.914 31.9096C328.266 32.6687 327.833 33.8615 327.833 35.4879V42.1025C327.833 43.4578 327.239 43.9457 325.942 43.9457H324.051C322.754 43.9457 322.16 43.4578 322.16 42.1025V26.9217C322.16 26.0542 322.592 25.6747 323.24 25.6747C324.213 25.6747 325.564 26.488 326.59 28.0603C328.158 26.3253 330.373 25.3494 332.697 25.3494C335.453 25.3494 337.668 26.3253 339.127 27.9518C340.586 29.5783 341.288 31.8012 341.288 35.3795ZM311.785 20.0903C311.785 18.3554 313.244 17 314.919 17C314.973 17 314.973 17 315.027 17C316.702 17.1084 317.999 18.5723 317.891 20.253C317.783 21.9337 316.324 23.235 314.649 23.1265C313.028 23.0723 311.785 21.7169 311.785 20.0903ZM312.163 42.1567V27.8976C312.163 26.5964 312.649 26 314.054 26H315.946C317.35 26 317.837 26.5422 317.837 27.8976V42.1567C317.837 43.4578 317.35 44 315.946 44H314.054C312.649 44 312.163 43.4578 312.163 42.1567ZM302.166 42.1567V24.265C302.166 19.765 304.652 17.2169 306.759 17.2169C307.408 17.2169 307.84 17.6506 307.84 18.4639V42.1567C307.84 43.512 307.3 44 305.949 44H304.058C302.761 44 302.166 43.512 302.166 42.1567ZM278.823 35C278.823 29.3072 283.146 25.2952 288.873 25.2952C294.601 25.2952 298.924 29.3072 298.924 35C298.924 40.6928 294.601 44.7048 288.873 44.7048C283.146 44.7048 278.823 40.6385 278.823 35ZM293.196 35C293.196 32.3434 291.521 30.3916 288.873 30.3916C286.225 30.3916 284.551 32.3434 284.551 35C284.551 37.6566 286.225 39.6084 288.873 39.6084C291.521 39.6084 293.196 37.7108 293.196 35ZM275.905 27.8976V43.0783C275.905 43.9458 275.472 44.3253 274.824 44.3253C273.851 44.3253 272.5 43.512 271.528 41.994C270.015 43.729 267.853 44.7048 265.53 44.6505C263.368 44.7048 261.315 43.9458 259.694 42.482C258.019 40.8554 257.1 38.3615 257.1 34.7831V27.8976C257.1 26.5964 257.586 26 258.991 26H260.883C262.288 26 262.774 26.5422 262.774 27.8976V34.2952C262.774 36.4639 263.152 37.6024 263.855 38.3615C264.503 39.0121 265.476 39.3916 266.394 39.3374C267.421 39.3374 268.394 38.9578 269.096 38.1988C269.799 37.4397 270.177 36.247 270.177 34.4036V27.8976C270.177 26.5422 270.771 26 272.068 26H273.96C275.31 26 275.905 26.5422 275.905 27.8976ZM253.21 18.4639V43.0783C253.21 43.9458 252.777 44.3253 252.129 44.3253C251.156 44.3253 249.805 43.512 248.833 42.0483C247.644 43.4578 245.212 44.7048 242.402 44.7048C236.783 44.7048 233 40.5843 233 35C233 29.4157 236.891 25.2952 242.402 25.2952C244.24 25.2952 246.023 25.8373 247.59 26.8675V24.265C247.59 19.765 250.129 17.2169 252.183 17.2169C252.831 17.2169 253.21 17.6506 253.21 18.4639ZM247.59 35C247.59 32.235 245.644 30.3916 243.213 30.3916C240.781 30.3916 238.782 32.235 238.782 35C238.782 37.765 240.727 39.6084 243.213 39.6084C245.698 39.6084 247.59 37.8193 247.59 35Z" fill="black" fill-opacity="0.4"/>
<path d="M505.587 26.0923C508.26 26.0923 510.398 26.9826 512.18 28.8227L512.299 28.9414L514.675 26.6265L514.615 26.5078C512.477 24.1336 509.21 22.8277 505.468 22.8277C498.103 22.8277 492.697 27.9324 492.697 34.9958C492.697 42.0592 498.043 47.1637 505.408 47.1637C509.151 47.1637 512.417 45.858 514.615 43.4242L514.675 43.3055L512.299 40.9907L512.18 41.1094C510.398 42.9495 508.2 43.8993 505.587 43.8993C500.241 43.8993 496.38 40.1597 496.38 34.9958C496.38 29.8318 500.3 26.0923 505.587 26.0923ZM524.832 44.0772C521.327 44.0772 518.892 41.5249 518.892 37.9636C518.892 34.3428 521.327 31.8498 524.832 31.8498C528.336 31.8498 530.771 34.3428 530.771 37.9636C530.771 41.5843 528.336 44.0772 524.832 44.0772ZM524.832 28.7633C519.308 28.7633 515.328 32.6215 515.328 37.9636C515.328 43.3055 519.308 47.1637 524.832 47.1637C530.356 47.1637 534.335 43.3055 534.335 37.9636C534.335 32.6215 530.296 28.7633 524.832 28.7633ZM545.027 44.0772C541.522 44.0772 539.028 41.5249 539.028 37.9042C539.028 34.2835 541.463 31.7311 545.027 31.7311C548.531 31.7311 550.967 34.2835 550.967 37.9042C550.967 41.5249 548.531 44.0772 545.027 44.0772ZM550.967 31.2563C549.482 29.535 547.343 28.6446 544.789 28.6446C539.325 28.6446 535.523 32.4434 535.523 37.9042C535.523 43.365 539.325 47.1637 544.789 47.1637C547.403 47.1637 549.66 46.1548 551.085 44.374V46.9263H554.471V21.6406H550.907L550.967 31.2563ZM565.875 31.7311C568.786 31.7311 570.984 33.6899 571.399 36.539H560.411C560.767 33.6899 562.906 31.7311 565.875 31.7311ZM565.875 28.7633C560.648 28.7633 556.906 32.6215 556.906 37.9636C556.906 43.365 560.827 47.1637 566.529 47.1637C569.499 47.1637 571.934 46.1548 573.597 44.2553L573.657 44.196L571.696 41.9404L571.578 42.0592C570.33 43.4242 568.667 44.1365 566.588 44.1365C563.262 44.1365 560.827 42.2373 560.351 39.21H574.607V39.0913C574.666 38.7945 574.666 38.3791 574.666 38.0823C574.726 32.5621 571.043 28.7633 565.875 28.7633ZM590.941 41.5843C589.872 43.187 588.209 44.0772 586.13 44.0772C582.507 44.0772 580.072 41.5843 580.072 37.9636C580.072 34.3428 582.566 31.8498 586.13 31.8498C588.209 31.8498 589.872 32.6809 590.941 34.3428L591.001 34.4615L593.733 32.7402L593.674 32.6215C592.248 30.1879 589.516 28.7633 586.19 28.7633C580.606 28.7633 576.508 32.6215 576.508 37.9636C576.508 43.3055 580.606 47.1637 586.19 47.1637C589.516 47.1637 592.248 45.7393 593.674 43.2463L593.733 43.1275L591.001 41.4656L590.941 41.5843ZM604.425 44.0772C600.92 44.0772 598.485 41.5249 598.485 37.9636C598.485 34.3428 600.92 31.8498 604.425 31.8498C607.929 31.8498 610.364 34.3428 610.364 37.9636C610.364 41.5843 607.929 44.0772 604.425 44.0772ZM604.425 28.7633C598.901 28.7633 594.921 32.6215 594.921 37.9636C594.921 43.3055 598.901 47.1637 604.425 47.1637C609.949 47.1637 613.928 43.3055 613.928 37.9636C613.928 32.6215 609.889 28.7633 604.425 28.7633ZM628.897 28.7633L622.838 42.6528L616.898 28.7633H613.275L621.056 46.5107L621.115 46.5702H624.561L632.342 28.7633H628.897ZM465.033 17C454.62 17 446.138 25.3916 446.138 35.6294V35.7133L449.329 37.5595H449.413C451.429 36.2168 453.864 35.7133 456.299 36.1329C457.979 36.4685 459.574 37.2238 460.834 38.3986L461.422 38.9021L461.758 38.2308C462.094 37.5595 462.429 36.972 462.765 36.3846C462.933 36.1329 463.101 35.965 463.269 35.7133L463.605 35.2937L463.185 34.958C461.422 33.5315 459.322 32.5245 457.055 32.1049C454.872 31.6853 452.688 31.7692 450.673 32.4405C452.185 25.8112 458.063 21.1119 465.033 21.1119C468.979 21.1119 472.674 22.6224 475.446 25.3916C477.461 27.3217 478.805 29.7552 479.392 32.4405C478.133 32.021 476.789 31.8532 475.446 31.8532H475.194C474.69 31.8532 474.186 31.937 473.598 31.937H473.514C473.346 31.937 473.094 32.021 472.926 32.021C472.59 32.1049 472.339 32.1049 472.003 32.1888L471.751 32.2727C471.499 32.3567 471.247 32.4405 470.995 32.5245H470.911C470.323 32.6923 469.819 32.9441 469.231 33.1958C468.979 33.2797 468.728 33.4475 468.476 33.6154H468.392C467.132 34.3706 465.956 35.2937 465.033 36.4685L464.949 36.6364C464.697 36.972 464.529 37.2238 464.361 37.3916C464.193 37.5595 464.109 37.8112 463.941 38.0629L463.857 38.2308C463.689 38.4825 463.605 38.7343 463.521 38.9021V38.986C463.269 39.4895 463.017 40.0769 462.849 40.6643V40.7482C462.429 42.091 462.178 43.5175 462.178 45.028V45.1957C462.178 45.3637 462.178 45.6155 462.178 45.7833C462.178 45.8673 462.178 45.951 462.178 46.035C462.178 46.119 462.178 46.2868 462.178 46.3708V46.4545V46.6225C462.178 46.7902 462.261 47.042 462.261 47.2097C462.681 49.2237 463.605 51.1538 465.033 52.916L465.117 53L465.201 52.916C465.788 52.2448 467.132 50.1468 467.3 48.888C466.628 47.6292 466.292 46.2028 466.292 44.8603C466.292 40.1609 469.987 36.2168 474.774 35.965H475.11C477.041 35.8811 478.973 36.4685 480.568 37.5595H480.652L483.843 35.7133V35.6294C483.843 30.6783 481.912 25.979 478.301 22.4545C474.774 18.9301 470.071 17 465.033 17Z" fill="black" fill-opacity="0.4"/>
<path fill-rule="evenodd" clip-rule="evenodd" d="M753.457 40.8979V22.5648C753.457 19.5032 750.972 17 747.892 17H697.953C694.892 17 692.388 19.4852 692.388 22.5648V40.8979C692.388 43.9595 694.874 46.4627 697.953 46.4627H734.115L743.912 53L741.949 46.4627H747.928C750.972 46.4447 753.475 43.9595 753.457 40.8979ZM702.942 35.4232C703.23 35.9275 703.608 36.3237 704.094 36.5758C704.58 36.8459 705.103 36.972 705.697 36.972C706.291 36.972 706.832 36.8279 707.318 36.5578C707.804 36.2696 708.2 35.8734 708.47 35.3692C708.758 34.8469 708.903 34.2706 708.903 33.6043V25.3742C708.903 25.2481 708.939 25.1581 709.011 25.0861C709.083 25.014 709.173 24.978 709.299 24.978H711.298C711.424 24.978 711.532 25.014 711.604 25.0861C711.64 25.1221 711.676 25.1761 711.694 25.2121C711.712 25.2661 711.73 25.3202 711.712 25.3742V33.5863C711.712 34.9009 711.442 35.9995 710.902 36.9C710.361 37.7824 709.641 38.4487 708.74 38.8629C707.84 39.2951 706.814 39.4932 705.697 39.4932C704.58 39.4932 703.572 39.2771 702.653 38.8449C701.735 38.4127 701.015 37.7464 700.474 36.8639C699.934 35.9815 699.664 34.8829 699.664 33.5683V25.3742C699.664 25.2661 699.7 25.1761 699.772 25.104C699.808 25.068 699.844 25.032 699.88 25.014C699.916 24.996 699.97 24.978 700.024 24.978H702.131C702.257 24.978 702.365 25.014 702.419 25.0861C702.473 25.1581 702.509 25.2481 702.509 25.3742V33.6043C702.509 34.3067 702.653 34.919 702.942 35.4232ZM713.603 36.8459C713.603 36.9 713.621 36.972 713.639 37.026C713.675 37.098 713.711 37.1701 713.747 37.2421C714.197 37.9445 714.81 38.5028 715.566 38.899C716.322 39.2952 717.187 39.4932 718.141 39.4932C718.898 39.4932 719.636 39.3492 720.338 39.0791C721.041 38.7909 721.599 38.3767 722.049 37.8004C722.481 37.2421 722.698 36.5578 722.698 35.7474C722.698 34.901 722.427 34.1266 721.887 33.4602C721.347 32.7759 720.536 32.2896 719.438 31.9475C719.294 31.8935 719.168 31.8574 719.042 31.8214C718.916 31.7854 718.808 31.7494 718.718 31.7314C718.177 31.5873 717.781 31.4612 717.529 31.3532C717.277 31.2451 717.061 31.1191 716.917 30.975C716.754 30.8129 716.682 30.6148 716.682 30.3447C716.682 30.0025 716.827 29.7324 717.115 29.5162C717.403 29.3001 717.799 29.1921 718.303 29.1921C718.79 29.1921 719.186 29.2822 719.51 29.4442C719.834 29.6063 720.14 29.8765 720.446 30.2186C720.554 30.3447 720.645 30.4167 720.753 30.4167C720.825 30.4167 720.915 30.3807 721.005 30.2907L722.139 29.3542C722.265 29.2461 722.337 29.1561 722.337 29.066C722.337 28.994 722.283 28.886 722.193 28.7419C721.761 28.2016 721.221 27.7334 720.572 27.3732C719.924 26.995 719.15 26.8149 718.231 26.8149C717.385 26.8149 716.646 26.977 715.998 27.3191C715.35 27.6613 714.864 28.0936 714.503 28.6338C714.161 29.1741 713.981 29.7143 713.981 30.2726C713.981 30.957 714.107 31.5513 714.377 32.0375C714.647 32.5238 715.044 32.938 715.584 33.2801C716.124 33.6223 716.827 33.9285 717.709 34.1986C718.087 34.3067 718.321 34.3787 718.375 34.3967C718.808 34.5228 719.132 34.6308 719.33 34.7208C719.546 34.8109 719.708 34.919 719.816 35.0811C719.942 35.2431 719.996 35.4592 719.996 35.7474C719.996 36.0175 719.888 36.2696 719.69 36.4858C719.474 36.7019 719.222 36.8639 718.898 36.99C718.591 37.098 718.249 37.1701 717.925 37.1701C717.385 37.1701 716.935 37.044 716.574 36.7919C716.214 36.5398 715.872 36.1976 715.566 35.7654C715.458 35.6213 715.35 35.5493 715.224 35.5493C715.152 35.5493 715.08 35.5853 715.008 35.6213L713.765 36.5037C713.657 36.6118 713.603 36.7198 713.603 36.8459ZM733.935 35.8194C734.043 35.8194 734.115 35.8554 734.169 35.9455L735.16 37.1521C735.232 37.2601 735.286 37.3502 735.286 37.4402C735.286 37.5483 735.232 37.6383 735.142 37.7284C734.421 38.3587 733.719 38.8089 732.999 39.097C732.296 39.3672 731.522 39.5112 730.712 39.5112C729.613 39.5112 728.568 39.2231 727.596 38.6648C726.623 38.0886 725.849 37.3322 725.273 36.3597C724.697 35.3872 724.408 34.3427 724.408 33.2081C724.408 32.0555 724.679 30.993 725.219 30.0385C725.759 29.066 726.497 28.3096 727.452 27.7334C728.406 27.1571 729.469 26.8869 730.639 26.8869C731.594 26.8869 732.53 27.121 733.467 27.5893C734.403 28.0575 735.178 28.7599 735.79 29.7143C736.402 30.6688 736.709 31.8394 736.709 33.2261C736.709 33.5323 736.673 33.7664 736.6 33.9104C736.528 34.0545 736.42 34.1446 736.312 34.1626C736.186 34.1986 735.988 34.2166 735.736 34.1986H727.092C727.218 34.7749 727.47 35.2792 727.812 35.7113C728.154 36.1436 728.586 36.4858 729.091 36.7199C729.595 36.954 730.135 37.08 730.712 37.08C731.162 37.08 731.54 37.026 731.882 36.936C732.206 36.8459 732.476 36.7379 732.693 36.6118C732.945 36.4677 733.179 36.3056 733.395 36.1256L733.683 35.9095C733.773 35.8374 733.863 35.8194 733.935 35.8194ZM729.163 29.5703C728.695 29.8044 728.298 30.1286 727.956 30.5248C727.614 30.9209 727.362 31.3712 727.182 31.8755H734.043C733.755 31.083 733.305 30.4347 732.711 29.9485C732.116 29.4622 731.414 29.2281 730.639 29.2281C730.135 29.2101 729.631 29.3362 729.163 29.5703ZM740.707 26.977H739.32C739.068 26.977 738.942 27.121 738.942 27.3912V38.881C738.942 39.1511 739.068 39.2771 739.32 39.2771H741.301C741.571 39.2771 741.697 39.1511 741.697 38.881V32.1456C741.697 31.5333 741.805 31.029 742.039 30.6148C742.273 30.2006 742.561 29.8945 742.94 29.6964C743.3 29.4983 743.696 29.3902 744.11 29.3902C744.524 29.3902 744.903 29.4622 745.263 29.6063C745.623 29.7684 745.965 29.9485 746.289 30.1646C746.397 30.2366 746.505 30.2907 746.595 30.2907C746.704 30.2907 746.776 30.2366 746.866 30.1286L747.766 28.8499C747.838 28.7599 747.874 28.6698 747.874 28.5798C747.874 28.4537 747.802 28.3277 747.658 28.1836C747.298 27.8774 746.83 27.5713 746.253 27.2831C745.695 26.995 745.083 26.8509 744.416 26.8509C743.804 26.8509 743.246 26.995 742.742 27.2831C742.237 27.5713 741.823 27.9675 741.499 28.4897L741.301 27.4272C741.265 27.2291 741.211 27.103 741.103 27.049C741.013 26.995 740.887 26.977 740.707 26.977Z" fill="black" fill-opacity="0.4"/>
<path d="M757.005 24.978H767.306C767.558 24.978 767.684 25.1041 767.684 25.3562V27.1751C767.684 27.4273 767.558 27.5713 767.306 27.5713H763.506V38.899C763.506 39.1511 763.38 39.2772 763.128 39.2772H761.057C760.805 39.2772 760.679 39.1511 760.679 38.899V27.5533H756.987C756.735 27.5533 756.608 27.4273 756.608 27.1571V25.3562C756.626 25.1041 756.753 24.978 757.005 24.978Z" fill="black" fill-opacity="0.4"/>
<path d="M776.887 35.8197C776.995 35.8197 777.067 35.8557 777.121 35.9457L778.111 37.1524C778.183 37.2604 778.237 37.3504 778.237 37.4405C778.237 37.5485 778.183 37.6386 778.093 37.7286C777.373 38.359 776.67 38.8092 775.95 39.0973C775.23 39.3855 774.473 39.5115 773.663 39.5115C772.564 39.5115 771.52 39.2234 770.547 38.6651C769.575 38.0888 768.801 37.3324 768.224 36.36C767.648 35.3875 767.36 34.3429 767.36 33.2084C767.36 32.0558 767.63 30.9933 768.17 30.0388C768.71 29.0663 769.449 28.3099 770.403 27.7336C771.358 27.1574 772.42 26.8872 773.591 26.8872C774.545 26.8872 775.5 27.1213 776.418 27.5896C777.355 28.0578 778.129 28.7602 778.741 29.7146C779.354 30.6691 779.66 31.8397 779.66 33.2264C779.66 33.5325 779.624 33.7667 779.552 33.9107C779.48 34.0548 779.372 34.1448 779.264 34.1629C779.138 34.1989 778.94 34.2169 778.687 34.2169H770.061C770.187 34.7932 770.439 35.2974 770.782 35.7296C771.124 36.1619 771.556 36.504 772.06 36.7381C772.564 36.9723 773.105 37.0983 773.699 37.0983C774.149 37.0983 774.527 37.0443 774.87 36.9543C775.194 36.8642 775.464 36.7562 775.68 36.6301C775.932 36.486 776.166 36.3239 776.382 36.1438L776.67 35.9277C776.706 35.8377 776.797 35.8197 776.887 35.8197ZM772.096 29.5706C771.628 29.8047 771.232 30.1288 770.89 30.525C770.547 30.9212 770.295 31.3715 770.115 31.8757H776.995C776.706 31.0833 776.256 30.435 775.662 29.9487C775.068 29.4625 774.365 29.2284 773.573 29.2284C773.069 29.2104 772.546 29.3364 772.096 29.5706Z" fill="black" fill-opacity="0.4"/>
<path d="M780.488 37.0259C780.47 36.9718 780.452 36.8998 780.452 36.8458C780.452 36.7197 780.506 36.6117 780.615 36.5036L781.839 35.5671C781.893 35.5131 781.965 35.4771 782.055 35.4951C782.181 35.4951 782.307 35.5671 782.397 35.7112C782.704 36.1434 783.046 36.4856 783.406 36.7377C783.766 36.9898 784.216 37.1159 784.757 37.1159C785.099 37.1159 785.423 37.0619 785.729 36.9358C786.053 36.8098 786.323 36.6477 786.521 36.4316C786.72 36.2155 786.828 35.9633 786.828 35.6932C786.828 35.4051 786.774 35.1889 786.648 35.0269C786.521 34.8648 786.359 34.7567 786.161 34.6667C785.963 34.5766 785.639 34.4686 785.207 34.3425C785.135 34.3245 784.919 34.2705 784.541 34.1444C783.658 33.8743 782.956 33.5681 782.415 33.226C781.875 32.8838 781.479 32.4696 781.209 31.9833C780.939 31.4971 780.813 30.9028 780.813 30.2185C780.813 29.6602 780.993 29.1199 781.335 28.5796C781.677 28.0394 782.181 27.6072 782.83 27.265C783.478 26.9228 784.216 26.7607 785.063 26.7607C785.963 26.7607 786.756 26.9408 787.404 27.319C788.052 27.6972 788.593 28.1474 789.025 28.6877C789.133 28.8138 789.169 28.9218 789.169 29.0119C789.169 29.1019 789.097 29.21 788.971 29.3L787.836 30.2365C787.728 30.3085 787.656 30.3625 787.584 30.3625C787.494 30.3625 787.386 30.2905 787.278 30.1644C786.99 29.8223 786.666 29.5701 786.341 29.39C786.017 29.228 785.603 29.1379 785.135 29.1379C784.631 29.1379 784.234 29.246 783.946 29.4621C783.658 29.6782 783.514 29.9483 783.514 30.2905C783.514 30.5606 783.586 30.7587 783.748 30.9208C783.91 31.0829 784.108 31.209 784.36 31.299C784.613 31.4071 785.027 31.5151 785.549 31.6772C785.657 31.6952 785.765 31.7312 785.873 31.7672C785.999 31.8033 786.125 31.8393 786.269 31.8933C787.368 32.2175 788.178 32.7217 788.719 33.4061C789.259 34.0904 789.529 34.8468 789.529 35.6932C789.529 36.4856 789.313 37.1699 788.881 37.7462C788.448 38.3045 787.872 38.7367 787.17 39.0249C786.467 39.313 785.729 39.4571 784.973 39.4391C784.018 39.4391 783.154 39.241 782.397 38.8448C781.641 38.4486 781.047 37.8903 780.579 37.1879C780.561 37.1699 780.525 37.0979 780.488 37.0259Z" fill="black" fill-opacity="0.4"/>
<path d="M796.138 27.0673C796.408 27.0673 796.552 27.2114 796.552 27.4815V29.0663C796.552 29.1924 796.516 29.3004 796.426 29.3725C796.336 29.4445 796.228 29.4805 796.102 29.4805H794.716V35.4775C794.716 35.9097 794.788 36.2519 794.95 36.522C795.112 36.7742 795.382 36.9182 795.76 36.9363L796.066 36.9543C796.282 36.9723 796.426 37.0263 796.48 37.1344C796.534 37.2424 796.57 37.3685 796.552 37.4945V38.8632C796.552 39.1874 796.3 39.3495 795.814 39.3495C795.058 39.3495 794.391 39.2054 793.815 38.9172C793.221 38.6291 792.771 38.2149 792.446 37.6746C792.122 37.1344 791.96 36.504 791.96 35.7837V29.4985H790.844C790.736 29.4985 790.627 29.4625 790.555 29.3905C790.465 29.3184 790.429 29.2104 790.429 29.0843V27.5175C790.429 27.3735 790.465 27.2654 790.555 27.1754C790.627 27.1033 790.736 27.0673 790.844 27.0673H791.96V25.0503C791.96 24.9062 791.978 24.8162 792.032 24.7442C792.086 24.6721 792.194 24.6361 792.338 24.5821L794.301 24.0058C794.337 23.9878 794.373 23.9878 794.409 23.9878C794.445 23.9878 794.499 24.0058 794.535 24.0238C794.571 24.0418 794.607 24.0778 794.625 24.1138C794.68 24.1859 794.698 24.2939 794.698 24.42V27.0493L796.138 27.0673Z" fill="black" fill-opacity="0.4"/>
<path d="M799.182 22.583H800.857C801.217 22.583 801.397 22.7811 801.397 23.1953V24.8882C801.397 25.0863 801.361 25.2303 801.271 25.3024C801.181 25.3744 801.037 25.4284 800.857 25.4284H799.182C798.786 25.4284 798.587 25.2484 798.587 24.8882V23.1953C798.587 22.7811 798.786 22.583 799.182 22.583ZM798.786 27.0853C798.858 27.0132 798.948 26.9772 799.056 26.9772H801.091C801.199 26.9772 801.289 27.0132 801.361 27.0853C801.433 27.1573 801.469 27.2474 801.469 27.3734V38.8812C801.469 39.1333 801.343 39.2774 801.091 39.2774H799.056C798.804 39.2774 798.678 39.1513 798.678 38.8812V27.3734C798.678 27.2474 798.714 27.1573 798.786 27.0853Z" fill="black" fill-opacity="0.4"/>
<path d="M806.223 39.1693C806.115 39.2413 805.971 39.2773 805.845 39.2773H804.08C803.81 39.2773 803.666 39.1333 803.666 38.8631V27.3734C803.666 27.1032 803.81 26.9592 804.08 26.9592H805.377C805.503 26.9592 805.647 27.0132 805.737 27.1032C805.845 27.1933 805.917 27.3194 805.953 27.4454L806.115 28.8321C806.583 28.1658 807.142 27.6795 807.808 27.3554C808.474 27.0312 809.195 26.8691 809.933 26.8691C810.671 26.8691 811.392 27.0492 812.094 27.4274C812.797 27.8056 813.373 28.3819 813.841 29.1563C814.291 29.9307 814.525 30.9031 814.525 32.0557V38.8451C814.525 39.1153 814.399 39.2413 814.147 39.2413H812.22C811.95 39.2413 811.806 39.1153 811.806 38.8451V32.1458C811.806 31.6775 811.698 31.2453 811.464 30.8311C811.23 30.4169 810.906 30.0747 810.509 29.8226C810.095 29.5705 809.645 29.4444 809.141 29.4444C808.708 29.4444 808.276 29.5525 807.862 29.7866C807.43 30.0207 807.088 30.3449 806.818 30.7771C806.547 31.2093 806.403 31.7135 806.403 32.2718V38.8271C806.385 38.9892 806.331 39.0792 806.223 39.1693Z" fill="black" fill-opacity="0.4"/>
<path d="M827.888 40.4297C827.348 41.4022 826.628 42.1405 825.691 42.6448C824.755 43.149 823.674 43.3832 822.467 43.3832C821.657 43.3832 820.865 43.239 820.09 42.969C819.298 42.6987 818.632 42.3208 818.073 41.8524C817.965 41.7624 817.911 41.6723 817.911 41.5643C817.911 41.4922 817.947 41.4022 818.037 41.2761L818.848 40.1055C818.938 39.9795 819.046 39.9074 819.19 39.9074C819.298 39.9074 819.406 39.9435 819.532 40.0335C820.378 40.6278 821.423 40.9159 822.702 40.9159C823.35 40.9159 823.926 40.7719 824.43 40.4837C824.935 40.2136 825.349 39.7994 825.619 39.2951C825.907 38.7909 826.051 38.2146 826.051 37.5662V37.5303C825.511 38.1065 824.935 38.5388 824.34 38.8269C823.746 39.115 823.044 39.2591 822.251 39.2591C821.189 39.2591 820.18 39.007 819.262 38.4667C818.325 37.9444 817.587 37.2061 817.029 36.2696C816.47 35.3331 816.182 34.2706 816.2 33.082C816.2 31.9655 816.47 30.9209 817.029 29.9664C817.587 29.012 818.325 28.2376 819.262 27.6613C820.198 27.085 821.189 26.7969 822.251 26.7969C823.782 26.7969 825.097 27.3912 826.195 28.5618L826.357 27.4272C826.375 27.2471 826.429 27.121 826.501 27.049C826.574 26.977 826.682 26.941 826.826 26.941H828.374C828.609 26.941 828.735 27.085 828.735 27.3552V36.8099C828.681 38.2686 828.41 39.4572 827.888 40.4297ZM825.619 31.2271C825.295 30.6508 824.863 30.1826 824.304 29.8404C823.746 29.4982 823.134 29.3181 822.431 29.3181C821.711 29.3181 821.081 29.4982 820.522 29.8404C819.964 30.1826 819.55 30.6508 819.226 31.2451C818.92 31.8394 818.758 32.4697 818.758 33.1721C818.758 33.9104 818.92 34.5587 819.244 35.135C819.568 35.7113 820.018 36.1616 820.577 36.4857C821.135 36.8099 821.765 36.972 822.449 36.972C823.134 36.972 823.746 36.8099 824.286 36.4677C824.827 36.1255 825.259 35.6573 825.583 35.081C825.889 34.4867 826.051 33.8564 826.051 33.1721C826.087 32.4517 825.925 31.8034 825.619 31.2271Z" fill="black" fill-opacity="0.4"/>
<path d="M831.022 26.9771C830.247 26.9771 829.617 27.6074 829.617 28.3818C829.617 29.1562 830.247 29.7865 831.022 29.7865C831.796 29.7865 832.426 29.1562 832.426 28.3818C832.426 27.6254 831.796 26.9771 831.022 26.9771ZM831.022 29.4983C830.427 29.4983 829.923 28.9941 829.923 28.3818C829.923 27.7695 830.427 27.2652 831.022 27.2652C831.616 27.2652 832.12 27.7515 832.12 28.3818C832.12 28.9941 831.616 29.4983 831.022 29.4983Z" fill="black" fill-opacity="0.4"/>
<path d="M830.481 27.6254C830.481 27.6254 830.499 27.6074 830.517 27.6074H831.166C831.256 27.6074 831.346 27.6254 831.418 27.6794C831.49 27.7335 831.544 27.7875 831.598 27.8595C831.634 27.9316 831.67 28.0216 831.67 28.1117C831.67 28.2017 831.652 28.2737 831.598 28.3638C831.544 28.4358 831.49 28.5079 831.4 28.5439L831.688 29.1022V29.1202V29.1382H831.67H831.4C831.382 29.1382 831.382 29.1382 831.364 29.1382C831.364 29.1382 831.346 29.1202 831.346 29.1022L831.094 28.5979H830.788V29.0841C830.788 29.1202 830.77 29.1202 830.752 29.1202H830.535C830.499 29.1202 830.499 29.1022 830.499 29.0841V27.6254C830.463 27.6434 830.463 27.6254 830.481 27.6254ZM830.77 28.3638H831.094C831.148 28.3638 831.184 28.3458 831.22 28.3278C831.256 28.3098 831.292 28.2737 831.31 28.2377C831.328 28.2017 831.346 28.1657 831.346 28.1117C831.346 28.0756 831.328 28.0216 831.31 27.9856C831.292 27.9496 831.256 27.9136 831.22 27.8956C831.184 27.8775 831.148 27.8595 831.094 27.8595H830.77V28.3638Z" fill="black" fill-opacity="0.4"/>
<path d="M992.4 40.0369C990.018 40.0369 987.48 38.3969 987.48 34.7657C987.48 31.1345 990.018 29.4946 992.4 29.4946C994.782 29.4946 997.319 31.1345 997.319 34.7657C997.319 38.3969 994.782 40.0369 992.4 40.0369ZM1001.18 34.8048C1001.18 29.1041 996.929 25.7462 992.165 25.7462C987.402 25.7462 983.536 29.4946 983.536 34.8048C983.536 39.8807 987.09 43.59 991.619 43.8633C992.322 43.9025 995.406 43.8633 997.827 41.2863H997.905L1000.72 43.8633H1001.26V34.961C1001.22 34.961 1001.18 34.8048 1001.18 34.8048ZM1027.38 17.039C1028.79 17.039 1029.92 18.1714 1029.92 19.577C1029.92 20.9826 1028.79 22.115 1027.38 22.115C1026.06 22.115 1024.92 20.9826 1024.92 19.577C1024.92 18.1714 1026.02 17.039 1027.38 17.039ZM1025.59 43.8633H1029.26V25.7852H1025.59V43.8633ZM1045.66 37.6161C1044.76 39.295 1043.04 40.0759 1041.4 40.0759C1039.02 40.0759 1036.48 38.436 1036.48 34.8048C1036.48 31.1735 1039.02 29.5336 1041.4 29.5336C1043.04 29.5336 1044.76 30.3145 1045.66 31.9544L1049.05 29.9631C1047.49 27.2299 1044.64 25.6681 1041.4 25.6681C1036.64 25.6681 1032.54 29.2213 1032.54 34.7267C1032.54 40.2711 1036.6 43.8242 1041.4 43.8242C1044.64 43.8242 1047.49 42.2625 1049.05 39.5293L1045.66 37.6161ZM972.76 25.3948C971.354 25.3948 969.988 25.7852 968.894 26.449C968.426 26.7614 967.489 27.4642 967.098 28.167H967.02C966.63 27.4642 965.693 26.7614 965.224 26.449C964.092 25.7462 962.764 25.3948 961.359 25.3948C957.142 25.3948 953.706 28.9089 953.706 33.2039V43.7073H957.61V33.2039C957.61 31.0954 959.289 29.3384 961.398 29.3384C963.467 29.3384 965.185 31.0564 965.185 33.2039V43.7073H969.051V33.2039C969.051 31.0954 970.729 29.3384 972.838 29.3384C974.907 29.3384 976.625 31.0564 976.625 33.2039V43.7073H980.53V33.2039C980.413 28.8698 976.977 25.3948 972.76 25.3948ZM1065.57 43.7073C1061.82 43.7073 1058.82 41.3644 1058.82 37.0304V20.8265H1062.6V36.718C1062.6 38.8265 1063.78 39.8807 1065.57 39.8807V43.7073ZM1118.05 40.3102C1115.67 40.3102 1113.13 38.6703 1113.13 35.039C1113.13 31.4078 1115.67 29.7679 1118.05 29.7679C1120.43 29.7679 1122.97 31.4078 1122.97 35.039C1122.93 38.6703 1120.39 40.3102 1118.05 40.3102ZM1126.91 35C1126.91 29.4946 1122.85 25.9415 1118.05 25.9415C1113.48 25.9415 1109.54 29.1822 1109.19 34.2191V52.922H1112.86V41.5206C1114.38 43.7463 1117.35 44.0195 1118.32 44.0585H1118.67H1118.63C1122.81 43.9805 1126.91 40.5445 1126.91 35ZM1096.96 40.2712C1094.58 40.2712 1092.04 38.6312 1092.04 35C1092.04 31.3688 1094.58 29.7289 1096.96 29.7289C1099.35 29.7289 1101.88 31.3688 1101.88 35C1101.84 38.6703 1099.31 40.2712 1096.96 40.2712ZM1105.71 35C1105.71 29.2993 1101.45 25.9415 1096.69 25.9415C1091.93 25.9415 1088.06 29.6898 1088.06 35C1088.06 40.154 1091.69 43.8243 1096.26 44.0585H1096.61C1097.16 44.0585 1098.06 43.9805 1099.11 43.59C1099.38 43.512 1099.62 43.3558 1099.89 43.2385C1100.63 42.8483 1101.41 42.3015 1102.12 41.5206H1102.2L1105.16 44.0195H1105.71V35ZM1076.54 29.6117C1078.92 29.6117 1080.64 31.0174 1081.35 32.9306H1071.82C1072.52 30.9393 1074.24 29.6117 1076.54 29.6117ZM1080.68 38.1236C1079.78 39.4121 1078.3 40.1931 1076.54 40.1931C1073.85 40.1931 1072.01 38.475 1071.55 36.2104H1085.37C1085.41 35.82 1085.45 35.3904 1085.45 35C1085.45 30.0022 1081.46 25.9024 1076.54 25.9024C1071.62 25.9024 1067.64 30.0022 1067.64 35C1067.64 39.9978 1071.62 44.0975 1076.54 44.0975C1079.82 44.0975 1082.63 42.3015 1084.2 39.6464L1080.68 38.1236ZM1012.94 40.0759C1010.56 40.0759 1008.02 38.436 1008.02 34.8048C1008.02 31.1735 1010.56 29.5336 1012.94 29.5336C1015.32 29.5336 1017.9 31.1735 1017.9 34.8048C1017.94 38.475 1015.36 40.0759 1012.94 40.0759ZM1021.8 34.7657C1021.8 29.2603 1017.7 25.7852 1012.94 25.7852C1008.17 25.7852 1004.07 29.3384 1004.07 34.8438C1004.07 40.3883 1008.17 43.9415 1012.66 43.9415H1013.17C1014.66 43.7852 1016.1 43.1995 1017.23 42.1845L1017.47 41.9501C1017.74 41.6378 1017.94 41.2473 1018.01 40.8959V43.629C1018.01 43.629 1018.09 45.6595 1016.76 47.2213C1015.83 48.3927 1014.34 48.9783 1012.98 48.9783C1011.22 48.9783 1009.31 48.0413 1008.49 46.089L1004.86 47.6117C1006.26 50.8525 1009.38 52.8047 1012.9 52.8047C1017.7 52.8047 1021.76 49.2518 1021.76 43.7463L1021.8 34.7657ZM934.964 30.3926C932.972 22.7006 926.1 17 917.94 17C909.779 17 902.907 22.7006 900.916 30.3926C896.855 33.9848 893.966 38.7093 892.638 43.9415C895.528 42.9263 898.495 42.1063 901.541 41.5597C904.118 48.2755 910.482 53 917.94 53C925.437 53 931.801 48.2755 934.339 41.5597C937.619 42.1845 940.586 42.9653 943.241 43.9415C941.914 38.7093 939.024 33.9848 934.964 30.3926ZM912.512 30.0802C911.732 32.6182 909.428 34.1019 907.398 33.4382C905.328 32.7744 904.313 30.2365 905.055 27.6985C905.797 25.1605 908.139 23.6768 910.17 24.3406C912.2 24.9653 913.254 27.5814 912.512 30.0802ZM928.404 33.4382C926.335 34.1019 924.07 32.5792 923.289 30.0802C922.508 27.5423 923.562 25.0044 925.632 24.3406C927.701 23.6768 929.966 25.1996 930.747 27.6985C931.567 30.2365 930.513 32.7744 928.404 33.4382Z" fill="black" fill-opacity="0.4"/>
</svg>
