<svg width="167" height="35" viewBox="0 0 167 35" fill="none" xmlns="http://www.w3.org/2000/svg">
<circle cx="22.1429" cy="17.4285" r="9.14286" stroke="#7F56D9" stroke-width="6"/>
<circle opacity="0.2" cx="31.8571" cy="17.4285" r="9.14286" stroke="white" stroke-width="6"/>
<path d="M55.1009 24.4285V9.88301H65.2429V12.7381H58.6165V15.7211H64.7244V18.5833H58.6165V21.5734H65.2429V24.4285H55.1009ZM71.829 24.5847C71.0241 24.5847 70.2925 24.3764 69.6344 23.9597C68.9762 23.5431 68.4507 22.9181 68.0577 22.0847C67.6647 21.2514 67.4682 20.2168 67.4682 18.981C67.4682 17.6979 67.6718 16.642 68.079 15.8134C68.4862 14.9848 69.0188 14.3716 69.677 13.9739C70.3399 13.5762 71.0525 13.3773 71.8148 13.3773C72.3877 13.3773 72.8777 13.4768 73.2849 13.6756C73.6921 13.8698 74.0283 14.1207 74.2935 14.4285C74.5586 14.7362 74.7598 15.0558 74.8972 15.3873H74.9682V9.88301H78.4412V24.4285H75.0037V22.66H74.8972C74.7504 22.9962 74.542 23.311 74.2722 23.6046C74.0023 23.8982 73.6637 24.1349 73.2565 24.3148C72.8541 24.4948 72.3782 24.5847 71.829 24.5847ZM73.0364 21.8788C73.4578 21.8788 73.8176 21.7604 74.1159 21.5236C74.4142 21.2822 74.6438 20.9436 74.8048 20.508C74.9658 20.0724 75.0463 19.561 75.0463 18.9739C75.0463 18.3773 74.9658 17.8636 74.8048 17.4327C74.6486 17.0019 74.4189 16.6704 74.1159 16.4384C73.8176 16.2064 73.4578 16.0904 73.0364 16.0904C72.6055 16.0904 72.2409 16.2088 71.9426 16.4455C71.6443 16.6823 71.417 17.0161 71.2608 17.4469C71.1093 17.8778 71.0335 18.3868 71.0335 18.9739C71.0335 19.561 71.1116 20.0724 71.2679 20.508C71.4241 20.9436 71.6491 21.2822 71.9426 21.5236C72.2409 21.7604 72.6055 21.8788 73.0364 21.8788ZM88.0191 17.2055V19.883H81.2861V17.2055H88.0191ZM104.074 15.1529H100.523C100.476 14.7883 100.379 14.4592 100.232 14.1657C100.085 13.8721 99.8911 13.6212 99.6496 13.4128C99.4081 13.2045 99.1216 13.0459 98.7902 12.937C98.4635 12.8234 98.1013 12.7665 97.7036 12.7665C96.9981 12.7665 96.3896 12.9394 95.8783 13.285C95.3716 13.6306 94.981 14.1302 94.7064 14.7836C94.4365 15.437 94.3016 16.2277 94.3016 17.1557C94.3016 18.1216 94.4389 18.9313 94.7135 19.5847C94.9929 20.2334 95.3835 20.7234 95.8854 21.0549C96.392 21.3816 96.991 21.5449 97.6822 21.5449C98.0705 21.5449 98.4232 21.4952 98.7405 21.3958C99.0625 21.2964 99.3442 21.152 99.5857 20.9626C99.8319 20.7684 100.033 20.5341 100.189 20.2594C100.35 19.9801 100.462 19.6652 100.523 19.3148L104.074 19.3361C104.013 19.9801 103.826 20.6145 103.513 21.2395C103.205 21.8645 102.782 22.4351 102.242 22.9512C101.702 23.4626 101.044 23.8698 100.267 24.1728C99.4957 24.4758 98.6103 24.6273 97.6112 24.6273C96.2949 24.6273 95.116 24.3385 94.0743 23.7609C93.0374 23.1785 92.2182 22.3309 91.6169 21.2182C91.0156 20.1055 90.7149 18.7514 90.7149 17.1557C90.7149 15.5554 91.0203 14.1988 91.6311 13.0861C92.2419 11.9734 93.0681 11.1283 94.1098 10.5506C95.1515 9.97297 96.3186 9.68415 97.6112 9.68415C98.4919 9.68415 99.3063 9.80725 100.054 10.0535C100.803 10.2949 101.461 10.6501 102.029 11.1188C102.597 11.5828 103.059 12.1534 103.414 12.8305C103.769 13.5075 103.989 14.2817 104.074 15.1529ZM106.486 24.4285V13.5194H109.959V24.4285H106.486ZM108.226 12.2481C107.738 12.2481 107.319 12.0871 106.969 11.7651C106.619 11.4384 106.443 11.0454 106.443 10.5861C106.443 10.1316 106.619 9.74333 106.969 9.42136C107.319 9.09466 107.738 8.93131 108.226 8.93131C108.718 8.93131 109.138 9.09466 109.483 9.42136C109.834 9.74333 110.009 10.1316 110.009 10.5861C110.009 11.0454 109.834 11.4384 109.483 11.7651C109.138 12.0871 108.718 12.2481 108.226 12.2481ZM112.57 24.4285V13.5194H115.943V15.508H116.057C116.256 14.7883 116.58 14.2533 117.03 13.9029C117.48 13.5478 118.003 13.3702 118.599 13.3702C118.76 13.3702 118.926 13.3821 119.097 13.4057C119.267 13.4247 119.426 13.4555 119.572 13.4981V16.5165C119.407 16.4597 119.189 16.4147 118.919 16.3816C118.654 16.3484 118.417 16.3319 118.209 16.3319C117.797 16.3319 117.425 16.4242 117.094 16.6089C116.767 16.7888 116.509 17.0421 116.32 17.3688C116.135 17.6908 116.043 18.0696 116.043 18.5052V24.4285H112.57ZM125.913 24.6344C124.763 24.6344 123.776 24.3977 122.952 23.9242C122.133 23.4507 121.503 22.7926 121.063 21.9498C120.622 21.1022 120.402 20.1221 120.402 19.0094C120.402 17.892 120.622 16.9119 121.063 16.0691C121.508 15.2216 122.14 14.561 122.959 14.0876C123.783 13.6141 124.765 13.3773 125.906 13.3773C126.915 13.3773 127.793 13.5596 128.541 13.9242C129.294 14.2888 129.881 14.8049 130.303 15.4725C130.729 16.1354 130.954 16.9143 130.977 17.8091H127.732C127.665 17.2504 127.476 16.8125 127.163 16.4952C126.856 16.178 126.453 16.0194 125.956 16.0194C125.554 16.0194 125.201 16.133 124.898 16.3603C124.595 16.5828 124.358 16.9143 124.188 17.3546C124.022 17.7902 123.939 18.33 123.939 18.9739C123.939 19.6179 124.022 20.1624 124.188 20.6074C124.358 21.0478 124.595 21.3816 124.898 21.6089C125.201 21.8314 125.554 21.9427 125.956 21.9427C126.278 21.9427 126.562 21.874 126.808 21.7367C127.059 21.5994 127.265 21.3982 127.426 21.133C127.587 20.8631 127.689 20.5364 127.732 20.1529H130.977C130.944 21.0525 130.719 21.8385 130.303 22.5109C129.891 23.1832 129.311 23.7064 128.563 24.0805C127.819 24.4498 126.936 24.6344 125.913 24.6344ZM136.628 9.88301V24.4285H133.155V9.88301H136.628ZM144.338 24.6344C143.197 24.6344 142.212 24.4095 141.383 23.9597C140.559 23.5052 139.925 22.8589 139.48 22.0208C139.039 21.178 138.819 20.1766 138.819 19.0165C138.819 17.8896 139.042 16.9048 139.487 16.062C139.932 15.2145 140.559 14.5563 141.369 14.0876C142.179 13.6141 143.133 13.3773 144.231 13.3773C145.008 13.3773 145.718 13.4981 146.362 13.7395C147.006 13.981 147.562 14.3385 148.031 14.812C148.5 15.2855 148.864 15.8702 149.125 16.5663C149.385 17.2575 149.515 18.0506 149.515 18.9455V19.812H140.034V17.7949H146.284C146.279 17.4256 146.191 17.0966 146.021 16.8077C145.851 16.5189 145.616 16.294 145.318 16.133C145.024 15.9673 144.686 15.8844 144.302 15.8844C143.914 15.8844 143.566 15.972 143.258 16.1472C142.95 16.3177 142.707 16.552 142.527 16.8503C142.347 17.1439 142.252 17.4777 142.243 17.8518V19.9043C142.243 20.3494 142.33 20.74 142.505 21.0762C142.681 21.4076 142.929 21.6657 143.251 21.8503C143.573 22.035 143.957 22.1273 144.402 22.1273C144.709 22.1273 144.989 22.0847 145.24 21.9995C145.491 21.9143 145.706 21.7888 145.886 21.6231C146.066 21.4573 146.201 21.2538 146.291 21.0123L149.48 21.1046C149.347 21.8196 149.056 22.4422 148.606 22.9725C148.161 23.4981 147.576 23.9076 146.852 24.2012C146.128 24.49 145.289 24.6344 144.338 24.6344ZM153.642 24.6344C153.131 24.6344 152.693 24.4545 152.328 24.0947C151.968 23.7348 151.791 23.2992 151.796 22.7878C151.791 22.2859 151.968 21.8574 152.328 21.5023C152.693 21.1425 153.131 20.9626 153.642 20.9626C154.125 20.9626 154.551 21.1425 154.921 21.5023C155.295 21.8574 155.484 22.2859 155.489 22.7878C155.484 23.1288 155.394 23.4389 155.219 23.7182C155.049 23.9976 154.824 24.2201 154.544 24.3859C154.27 24.5516 153.969 24.6344 153.642 24.6344Z" fill="white"/>
</svg>
