<svg width="167" height="36" viewBox="0 0 167 36" fill="none" xmlns="http://www.w3.org/2000/svg">
<circle cx="22.1429" cy="18" r="9.14286" stroke="#7F56D9" stroke-width="6"/>
<circle opacity="0.2" cx="31.8571" cy="18" r="9.14286" stroke="#101828" stroke-width="6"/>
<path d="M55.1009 25V10.4545H65.2429V13.3097H58.6165V16.2926H64.7244V19.1548H58.6165V22.1449H65.2429V25H55.1009ZM71.829 25.1562C71.0241 25.1562 70.2925 24.9479 69.6344 24.5312C68.9762 24.1146 68.4507 23.4896 68.0577 22.6562C67.6647 21.8229 67.4682 20.7884 67.4682 19.5526C67.4682 18.2694 67.6718 17.2135 68.079 16.3849C68.4862 15.5563 69.0188 14.9432 69.677 14.5455C70.3399 14.1477 71.0525 13.9489 71.8148 13.9489C72.3877 13.9489 72.8777 14.0483 73.2849 14.2472C73.6921 14.4413 74.0283 14.6922 74.2935 15C74.5586 15.3078 74.7598 15.6274 74.8972 15.9588H74.9682V10.4545H78.4412V25H75.0037V23.2315H74.8972C74.7504 23.5677 74.542 23.8826 74.2722 24.1761C74.0023 24.4697 73.6637 24.7064 73.2565 24.8864C72.8541 25.0663 72.3782 25.1562 71.829 25.1562ZM73.0364 22.4503C73.4578 22.4503 73.8176 22.3319 74.1159 22.0952C74.4142 21.8537 74.6438 21.5152 74.8048 21.0795C74.9658 20.6439 75.0463 20.1326 75.0463 19.5455C75.0463 18.9489 74.9658 18.4351 74.8048 18.0043C74.6486 17.5734 74.4189 17.242 74.1159 17.0099C73.8176 16.7779 73.4578 16.6619 73.0364 16.6619C72.6055 16.6619 72.2409 16.7803 71.9426 17.017C71.6443 17.2538 71.417 17.5876 71.2608 18.0185C71.1093 18.4493 71.0335 18.9583 71.0335 19.5455C71.0335 20.1326 71.1116 20.6439 71.2679 21.0795C71.4241 21.5152 71.6491 21.8537 71.9426 22.0952C72.2409 22.3319 72.6055 22.4503 73.0364 22.4503ZM88.0191 17.777V20.4545H81.2861V17.777H88.0191ZM104.074 15.7244H100.523C100.476 15.3598 100.379 15.0308 100.232 14.7372C100.085 14.4437 99.8911 14.1927 99.6496 13.9844C99.4081 13.776 99.1216 13.6174 98.7902 13.5085C98.4635 13.3949 98.1013 13.3381 97.7036 13.3381C96.9981 13.3381 96.3896 13.5109 95.8783 13.8565C95.3716 14.2022 94.981 14.7017 94.7064 15.3551C94.4365 16.0085 94.3016 16.7992 94.3016 17.7273C94.3016 18.6932 94.4389 19.5028 94.7135 20.1562C94.9929 20.8049 95.3835 21.295 95.8854 21.6264C96.392 21.9531 96.991 22.1165 97.6822 22.1165C98.0705 22.1165 98.4232 22.0668 98.7405 21.9673C99.0625 21.8679 99.3442 21.7235 99.5857 21.5341C99.8319 21.34 100.033 21.1056 100.189 20.831C100.35 20.5516 100.462 20.2367 100.523 19.8864L104.074 19.9077C104.013 20.5516 103.826 21.1861 103.513 21.8111C103.205 22.4361 102.782 23.0066 102.242 23.5227C101.702 24.0341 101.044 24.4413 100.267 24.7443C99.4957 25.0473 98.6103 25.1989 97.6112 25.1989C96.2949 25.1989 95.116 24.91 94.0743 24.3324C93.0374 23.75 92.2182 22.9025 91.6169 21.7898C91.0156 20.6771 90.7149 19.3229 90.7149 17.7273C90.7149 16.1269 91.0203 14.7704 91.6311 13.6577C92.2419 12.545 93.0681 11.6998 94.1098 11.1222C95.1515 10.5445 96.3186 10.2557 97.6112 10.2557C98.4919 10.2557 99.3063 10.3788 100.054 10.625C100.803 10.8665 101.461 11.2216 102.029 11.6903C102.597 12.1544 103.059 12.7249 103.414 13.402C103.769 14.0791 103.989 14.8532 104.074 15.7244ZM106.486 25V14.0909H109.959V25H106.486ZM108.226 12.8196C107.738 12.8196 107.319 12.6586 106.969 12.3366C106.619 12.0099 106.443 11.617 106.443 11.1577C106.443 10.7031 106.619 10.3149 106.969 9.9929C107.319 9.66619 107.738 9.50284 108.226 9.50284C108.718 9.50284 109.138 9.66619 109.483 9.9929C109.834 10.3149 110.009 10.7031 110.009 11.1577C110.009 11.617 109.834 12.0099 109.483 12.3366C109.138 12.6586 108.718 12.8196 108.226 12.8196ZM112.57 25V14.0909H115.943V16.0795H116.057C116.256 15.3598 116.58 14.8248 117.03 14.4744C117.48 14.1193 118.003 13.9418 118.599 13.9418C118.76 13.9418 118.926 13.9536 119.097 13.9773C119.267 13.9962 119.426 14.027 119.572 14.0696V17.0881C119.407 17.0312 119.189 16.9863 118.919 16.9531C118.654 16.92 118.417 16.9034 118.209 16.9034C117.797 16.9034 117.425 16.9957 117.094 17.1804C116.767 17.3603 116.509 17.6136 116.32 17.9403C116.135 18.2623 116.043 18.6411 116.043 19.0767V25H112.57ZM125.913 25.206C124.763 25.206 123.776 24.9692 122.952 24.4957C122.133 24.0223 121.503 23.3641 121.063 22.5213C120.622 21.6738 120.402 20.6937 120.402 19.581C120.402 18.4635 120.622 17.4834 121.063 16.6406C121.508 15.7931 122.14 15.1326 122.959 14.6591C123.783 14.1856 124.765 13.9489 125.906 13.9489C126.915 13.9489 127.793 14.1312 128.541 14.4957C129.294 14.8603 129.881 15.3764 130.303 16.044C130.729 16.7069 130.954 17.4858 130.977 18.3807H127.732C127.665 17.822 127.476 17.384 127.163 17.0668C126.856 16.7495 126.453 16.5909 125.956 16.5909C125.554 16.5909 125.201 16.7045 124.898 16.9318C124.595 17.1544 124.358 17.4858 124.188 17.9261C124.022 18.3617 123.939 18.9015 123.939 19.5455C123.939 20.1894 124.022 20.7339 124.188 21.179C124.358 21.6193 124.595 21.9531 124.898 22.1804C125.201 22.4029 125.554 22.5142 125.956 22.5142C126.278 22.5142 126.562 22.4455 126.808 22.3082C127.059 22.1709 127.265 21.9697 127.426 21.7045C127.587 21.4347 127.689 21.108 127.732 20.7244H130.977C130.944 21.6241 130.719 22.41 130.303 23.0824C129.891 23.7547 129.311 24.2779 128.563 24.652C127.819 25.0213 126.936 25.206 125.913 25.206ZM136.628 10.4545V25H133.155V10.4545H136.628ZM144.338 25.206C143.197 25.206 142.212 24.9811 141.383 24.5312C140.559 24.0767 139.925 23.4304 139.48 22.5923C139.039 21.7495 138.819 20.7481 138.819 19.5881C138.819 18.4612 139.042 17.4763 139.487 16.6335C139.932 15.786 140.559 15.1278 141.369 14.6591C142.179 14.1856 143.133 13.9489 144.231 13.9489C145.008 13.9489 145.718 14.0696 146.362 14.3111C147.006 14.5526 147.562 14.91 148.031 15.3835C148.5 15.857 148.864 16.4418 149.125 17.1378C149.385 17.8291 149.515 18.6222 149.515 19.517V20.3835H140.034V18.3665H146.284C146.279 17.9972 146.191 17.6681 146.021 17.3793C145.851 17.0904 145.616 16.8655 145.318 16.7045C145.024 16.5388 144.686 16.456 144.302 16.456C143.914 16.456 143.566 16.5436 143.258 16.7188C142.95 16.8892 142.707 17.1236 142.527 17.4219C142.347 17.7154 142.252 18.0492 142.243 18.4233V20.4759C142.243 20.9209 142.33 21.3116 142.505 21.6477C142.681 21.9792 142.929 22.2372 143.251 22.4219C143.573 22.6065 143.957 22.6989 144.402 22.6989C144.709 22.6989 144.989 22.6562 145.24 22.571C145.491 22.4858 145.706 22.3603 145.886 22.1946C146.066 22.0289 146.201 21.8253 146.291 21.5838L149.48 21.6761C149.347 22.3911 149.056 23.0137 148.606 23.544C148.161 24.0696 147.576 24.4792 146.852 24.7727C146.128 25.0616 145.289 25.206 144.338 25.206ZM153.642 25.206C153.131 25.206 152.693 25.026 152.328 24.6662C151.968 24.3063 151.791 23.8707 151.796 23.3594C151.791 22.8575 151.968 22.429 152.328 22.0739C152.693 21.714 153.131 21.5341 153.642 21.5341C154.125 21.5341 154.551 21.714 154.921 22.0739C155.295 22.429 155.484 22.8575 155.489 23.3594C155.484 23.7003 155.394 24.0104 155.219 24.2898C155.049 24.5691 154.824 24.7917 154.544 24.9574C154.27 25.1231 153.969 25.206 153.642 25.206Z" fill="#101828"/>
</svg>
