<svg width="49" height="48" viewBox="0 0 49 48" fill="none" xmlns="http://www.w3.org/2000/svg">
<rect x="0.5" width="47.7143" height="48" rx="10" fill="#FCE7F6"/>
<path d="M12.125 12C11.7798 12 11.5 12.2612 11.5 12.5834V34.9683C11.5 35.2543 11.6187 35.5274 11.8278 35.7225C12.0188 35.9008 12.2704 36 12.5317 36H36.5892C36.9344 36 37.2143 35.7388 37.2143 35.4166C37.2143 35.0944 36.9344 34.8333 36.5892 34.8333H14.7501C13.6455 34.8333 12.7501 33.9378 12.7501 32.8333V12.5834C12.7501 12.2612 12.4702 12 12.125 12Z" fill="#C11574"/>
<path fill-rule="evenodd" clip-rule="evenodd" d="M17.1254 27.1478C15.9943 27.1357 15.0045 27.855 14.7397 28.8814C14.475 29.9078 15.0057 30.9687 16.0187 31.4383C17.0318 31.908 18.2582 31.6616 18.9745 30.8445C19.6908 30.0274 19.7068 28.8567 19.013 28.0229L21.9382 24.0209C22.192 24.1013 22.4577 24.1446 22.7257 24.1493C23.4107 24.1552 24.0657 23.8877 24.5259 23.4142L27.126 25.141C27.0861 25.3096 27.0651 25.4817 27.0635 25.6544C27.0635 26.8916 28.1381 27.8945 29.4637 27.8945C30.7893 27.8945 31.8639 26.8916 31.8639 25.6544C31.862 25.1475 31.672 24.6569 31.3263 24.2659L34.114 20.2873C35.249 20.6213 36.4737 20.1198 36.9788 19.1141C37.484 18.1084 37.1137 16.909 36.1126 16.3084C35.1116 15.7077 33.7888 15.8913 33.0182 16.7377C32.2476 17.5842 32.2672 18.8322 33.064 19.6573L30.2888 23.5775C30.0131 23.4799 29.7211 23.4286 29.4262 23.4259C28.7709 23.4255 28.1436 23.6741 27.6886 24.1143L25.0759 22.4108C25.0889 22.2594 25.0889 22.1072 25.0759 21.9558C25.1268 20.9435 24.4432 20.0254 23.4089 19.7169C22.3746 19.4085 21.2473 19.7865 20.6599 20.6388C20.0724 21.491 20.1711 22.6053 20.9006 23.3559L18.0129 27.3111C17.7313 27.2033 17.4298 27.1478 17.1254 27.1478ZM34.8141 17.1021C35.4493 17.1021 35.9642 17.5827 35.9642 18.1755C35.9642 18.7683 35.4493 19.2489 34.8141 19.2489C34.1789 19.2489 33.664 18.7683 33.664 18.1755C33.664 17.5827 34.1789 17.1021 34.8141 17.1021ZM30.5763 25.6544C30.5763 25.0615 30.0614 24.581 29.4262 24.581C28.791 24.581 28.2761 25.0615 28.2761 25.6544C28.2761 26.2472 28.791 26.7278 29.4262 26.7278C30.0614 26.7278 30.5763 26.2472 30.5763 25.6544ZM22.7257 20.8357C23.3609 20.8357 23.8758 21.3163 23.8758 21.9091C23.8758 22.5019 23.3609 22.9825 22.7257 22.9825C22.0905 22.9825 21.5756 22.5019 21.5756 21.9091C21.5756 21.3163 22.0905 20.8357 22.7257 20.8357ZM16.0606 29.7931C16.2371 30.1971 16.6579 30.4612 17.1254 30.4613C17.7509 30.4615 18.2618 29.995 18.2754 29.4113C18.2856 28.9751 18.0119 28.5766 17.5831 28.4031C17.1542 28.2296 16.6555 28.3155 16.3214 28.6206C15.9873 28.9257 15.8842 29.3892 16.0606 29.7931Z" fill="#C11574"/>
</svg>
