<svg width="92" height="16" viewBox="0 0 92 16" fill="none" xmlns="http://www.w3.org/2000/svg">
<path d="M7.52447 1.46352C7.67415 1.00287 8.32585 1.00287 8.47553 1.46353L9.68386 5.18237C9.75079 5.38838 9.94277 5.52786 10.1594 5.52786H14.0696C14.554 5.52786 14.7554 6.14767 14.3635 6.43237L11.2001 8.73075C11.0248 8.85807 10.9515 9.08375 11.0184 9.28976L12.2268 13.0086C12.3764 13.4693 11.8492 13.8523 11.4573 13.5676L8.29389 11.2693C8.11865 11.1419 7.88135 11.1419 7.70611 11.2693L4.54267 13.5676C4.15081 13.8523 3.62357 13.4693 3.77325 13.0086L4.98157 9.28976C5.04851 9.08375 4.97518 8.85807 4.79994 8.73075L1.6365 6.43237C1.24464 6.14767 1.44603 5.52786 1.93039 5.52786H5.84062C6.05723 5.52786 6.24921 5.38838 6.31614 5.18237L7.52447 1.46352Z" fill="#FF9B26"/>
<path d="M26.5245 1.46352C26.6741 1.00287 27.3259 1.00287 27.4755 1.46353L28.6839 5.18237C28.7508 5.38838 28.9428 5.52786 29.1594 5.52786H33.0696C33.554 5.52786 33.7554 6.14767 33.3635 6.43237L30.2001 8.73075C30.0248 8.85807 29.9515 9.08375 30.0184 9.28976L31.2268 13.0086C31.3764 13.4693 30.8492 13.8523 30.4573 13.5676L27.2939 11.2693C27.1186 11.1419 26.8814 11.1419 26.7061 11.2693L23.5427 13.5676C23.1508 13.8523 22.6236 13.4693 22.7732 13.0086L23.9816 9.28976C24.0485 9.08375 23.9752 8.85807 23.7999 8.73075L20.6365 6.43237C20.2446 6.14767 20.446 5.52786 20.9304 5.52786H24.8406C25.0572 5.52786 25.2492 5.38838 25.3161 5.18237L26.5245 1.46352Z" fill="#FF9B26"/>
<path d="M45.5245 1.46352C45.6741 1.00287 46.3259 1.00287 46.4755 1.46353L47.6839 5.18237C47.7508 5.38838 47.9428 5.52786 48.1594 5.52786H52.0696C52.554 5.52786 52.7554 6.14767 52.3635 6.43237L49.2001 8.73075C49.0248 8.85807 48.9515 9.08375 49.0184 9.28976L50.2268 13.0086C50.3764 13.4693 49.8492 13.8523 49.4573 13.5676L46.2939 11.2693C46.1186 11.1419 45.8814 11.1419 45.7061 11.2693L42.5427 13.5676C42.1508 13.8523 41.6236 13.4693 41.7732 13.0086L42.9816 9.28976C43.0485 9.08375 42.9752 8.85807 42.7999 8.73075L39.6365 6.43237C39.2446 6.14767 39.446 5.52786 39.9304 5.52786H43.8406C44.0572 5.52786 44.2492 5.38838 44.3161 5.18237L45.5245 1.46352Z" fill="#FF9B26"/>
<path d="M64.5245 1.46352C64.6741 1.00287 65.3259 1.00287 65.4755 1.46353L66.6839 5.18237C66.7508 5.38838 66.9428 5.52786 67.1594 5.52786H71.0696C71.554 5.52786 71.7554 6.14767 71.3635 6.43237L68.2001 8.73075C68.0248 8.85807 67.9515 9.08375 68.0184 9.28976L69.2268 13.0086C69.3764 13.4693 68.8492 13.8523 68.4573 13.5676L65.2939 11.2693C65.1186 11.1419 64.8814 11.1419 64.7061 11.2693L61.5427 13.5676C61.1508 13.8523 60.6236 13.4693 60.7732 13.0086L61.9816 9.28976C62.0485 9.08375 61.9752 8.85807 61.7999 8.73075L58.6365 6.43237C58.2446 6.14767 58.446 5.52786 58.9304 5.52786H62.8406C63.0572 5.52786 63.2492 5.38838 63.3161 5.18237L64.5245 1.46352Z" fill="#FF9B26"/>
<path d="M83.5245 1.46352C83.6741 1.00287 84.3259 1.00287 84.4755 1.46353L85.6839 5.18237C85.7508 5.38838 85.9428 5.52786 86.1594 5.52786H90.0696C90.554 5.52786 90.7554 6.14767 90.3635 6.43237L87.2001 8.73075C87.0248 8.85807 86.9515 9.08375 87.0184 9.28976L88.2268 13.0086C88.3764 13.4693 87.8492 13.8523 87.4573 13.5676L84.2939 11.2693C84.1186 11.1419 83.8814 11.1419 83.7061 11.2693L80.5427 13.5676C80.1508 13.8523 79.6236 13.4693 79.7732 13.0086L80.9816 9.28976C81.0485 9.08375 80.9752 8.85807 80.7999 8.73075L77.6365 6.43237C77.2446 6.14767 77.446 5.52786 77.9304 5.52786H81.8406C82.0572 5.52786 82.2492 5.38838 82.3161 5.18237L83.5245 1.46352Z" fill="#FF9B26"/>
</svg>
