<svg width="32" height="32" viewBox="0 0 32 32" fill="none" xmlns="http://www.w3.org/2000/svg">
<path d="M17 4V3C17 2.73478 16.8946 2.48043 16.7071 2.29289C16.5196 2.10536 16.2652 2 16 2C15.7348 2 15.4804 2.10536 15.2929 2.29289C15.1054 2.48043 15 2.73478 15 3V4C15 4.26522 15.1054 4.51957 15.2929 4.70711C15.4804 4.89464 15.7348 5 16 5C16.2652 5 16.5196 4.89464 16.7071 4.70711C16.8946 4.51957 17 4.26522 17 4ZM7.51 6.1C7.3187 5.93617 7.07262 5.85057 6.82095 5.86029C6.56927 5.87001 6.33053 5.97434 6.15244 6.15244C5.97434 6.33053 5.87001 6.56927 5.86029 6.82095C5.85057 7.07262 5.93617 7.3187 6.1 7.51L6.81 8.22C7.0013 8.38383 7.24738 8.46943 7.49905 8.45971C7.75073 8.44999 7.98947 8.34566 8.16756 8.16756C8.34566 7.98947 8.44999 7.75073 8.45971 7.49905C8.46943 7.24738 8.38383 7.0013 8.22 6.81L7.51 6.1ZM4 17C4.26522 17 4.51957 16.8946 4.70711 16.7071C4.89464 16.5196 5 16.2652 5 16C5 15.7348 4.89464 15.4804 4.70711 15.2929C4.51957 15.1054 4.26522 15 4 15H3C2.73478 15 2.48043 15.1054 2.29289 15.2929C2.10536 15.4804 2 15.7348 2 16C2 16.2652 2.10536 16.5196 2.29289 16.7071C2.48043 16.8946 2.73478 17 3 17H4ZM6.1 25.9C6.28736 26.0862 6.54081 26.1908 6.805 26.1908C7.06919 26.1908 7.32264 26.0862 7.51 25.9L8.22 25.19C8.38383 24.9987 8.46943 24.7526 8.45971 24.5009C8.44999 24.2493 8.34566 24.0105 8.16756 23.8324C7.98947 23.6543 7.75073 23.55 7.49905 23.5403C7.24738 23.5306 7.0013 23.6162 6.81 23.78L6.1 24.49C5.91375 24.6774 5.80921 24.9308 5.80921 25.195C5.80921 25.4592 5.91375 25.7126 6.1 25.9ZM25.19 23.78C24.9987 23.6162 24.7526 23.5306 24.5009 23.5403C24.2493 23.55 24.0105 23.6543 23.8324 23.8324C23.6543 24.0105 23.55 24.2493 23.5403 24.5009C23.5306 24.7526 23.6162 24.9987 23.78 25.19L24.49 25.9C24.6813 26.0638 24.9274 26.1494 25.1791 26.1397C25.4307 26.13 25.6695 26.0257 25.8476 25.8476C26.0257 25.6695 26.13 25.4307 26.1397 25.1791C26.1494 24.9274 26.0638 24.6813 25.9 24.49L25.19 23.78ZM29 15H28C27.7348 15 27.4804 15.1054 27.2929 15.2929C27.1054 15.4804 27 15.7348 27 16C27 16.2652 27.1054 16.5196 27.2929 16.7071C27.4804 16.8946 27.7348 17 28 17H29C29.2652 17 29.5196 16.8946 29.7071 16.7071C29.8946 16.5196 30 16.2652 30 16C30 15.7348 29.8946 15.4804 29.7071 15.2929C29.5196 15.1054 29.2652 15 29 15ZM25.9 6.1C25.7126 5.91375 25.4592 5.80921 25.195 5.80921C24.9308 5.80921 24.6774 5.91375 24.49 6.1L23.78 6.81C23.6753 6.89965 23.5903 7.00996 23.5303 7.13403C23.4703 7.25809 23.4365 7.39323 23.4312 7.53095C23.4259 7.66867 23.4491 7.806 23.4994 7.93432C23.5496 8.06265 23.6259 8.1792 23.7234 8.27665C23.8208 8.3741 23.9374 8.45036 24.0657 8.50064C24.194 8.55091 24.3313 8.57412 24.4691 8.5688C24.6068 8.56348 24.7419 8.52975 24.866 8.46973C24.99 8.4097 25.1004 8.32468 25.19 8.22L25.9 7.51C26.0863 7.32264 26.1908 7.06919 26.1908 6.805C26.1908 6.54081 26.0863 6.28736 25.9 6.1ZM7 16C7.00219 17.4778 7.36826 18.9324 8.06588 20.2352C8.7635 21.538 9.77121 22.649 11 23.47V29C11 29.2652 11.1054 29.5196 11.2929 29.7071C11.4804 29.8946 11.7348 30 12 30H20C20.2652 30 20.5196 29.8946 20.7071 29.7071C20.8946 29.5196 21 29.2652 21 29V23.47C22.2933 22.6059 23.3406 21.4213 24.0397 20.0318C24.7388 18.6423 25.0659 17.0954 24.989 15.5419C24.9121 13.9883 24.4339 12.4812 23.601 11.1676C22.7682 9.85391 21.6091 8.77853 20.2368 8.0463C18.8644 7.31408 17.3258 6.95001 15.7709 6.98961C14.2159 7.02921 12.6978 7.47112 11.3645 8.27225C10.0313 9.07338 8.92841 10.2064 8.16348 11.5607C7.39856 12.9151 6.9977 14.4446 7 16ZM13 28V26H19V28H13ZM16 9C17.5402 9.00083 19.0372 9.50964 20.2589 10.4476C21.4807 11.3855 22.3589 12.7002 22.7576 14.188C23.1563 15.6757 23.0532 17.2534 22.4643 18.6766C21.8753 20.0998 20.8334 21.289 19.5 22.06C19.3474 22.1481 19.2208 22.275 19.133 22.4277C19.0452 22.5805 18.9993 22.7538 19 22.93V24H17V18H19C19.2652 18 19.5196 17.8946 19.7071 17.7071C19.8946 17.5196 20 17.2652 20 17C20 16.7348 19.8946 16.4804 19.7071 16.2929C19.5196 16.1054 19.2652 16 19 16H13C12.7348 16 12.4804 16.1054 12.2929 16.2929C12.1054 16.4804 12 16.7348 12 17C12 17.2652 12.1054 17.5196 12.2929 17.7071C12.4804 17.8946 12.7348 18 13 18H15V24H13V22.92C13.0007 22.7438 12.9548 22.5705 12.867 22.4177C12.7792 22.265 12.6526 22.1381 12.5 22.05C11.1715 21.2769 10.1344 20.088 9.54886 18.6668C8.96327 17.2457 8.86173 15.6713 9.2599 14.1867C9.65807 12.7021 10.5338 11.3898 11.752 10.4524C12.9701 9.51499 14.4629 9.0046 16 9Z" fill="#B4708D"/>
</svg>
