<svg width="49" height="48" viewBox="0 0 49 48" fill="none" xmlns="http://www.w3.org/2000/svg">
<rect x="0.5" width="48" height="48" rx="10" fill="#F4EBFF"/>
<path d="M11.9333 28.3083C11.6941 28.3083 11.5 28.1229 11.5 27.8945V13.2414C11.5 12.557 12.0833 12 12.8 12H36.2C36.9167 12 37.5 12.557 37.5 13.2414V17.3063C37.5 17.5347 37.3059 17.7201 37.0667 17.7201C36.8275 17.7201 36.6333 17.5347 36.6333 17.3063V13.2414C36.6333 13.0138 36.4383 12.8276 36.2 12.8276H12.8C12.5617 12.8276 12.3667 13.0138 12.3667 13.2414V27.8945C12.3667 28.1229 12.1725 28.3083 11.9333 28.3083Z" fill="#7F56D9" stroke="#7F56D9" stroke-width="0.6"/>
<path d="M24.5 36H19.7334C19.4942 36 19.3 35.8146 19.3 35.5862C19.3 35.3578 19.4942 35.1724 19.7334 35.1724H20.6C21.3168 35.1724 21.9 34.6154 21.9 33.931V31.862C21.9 31.6336 22.0942 31.4482 22.3334 31.4482C22.5726 31.4482 22.7667 31.6336 22.7667 31.862V33.931C22.7667 34.3969 22.6046 34.8264 22.3325 35.1724H24.5C24.7392 35.1724 24.9334 35.3578 24.9334 35.5862C24.9334 35.8146 24.7392 36 24.5 36Z" fill="#7F56D9" stroke="#7F56D9" stroke-width="0.6"/>
<path d="M25.5111 31.8621H12.8C12.0833 31.8621 11.5 31.3051 11.5 30.6207V28.1379C11.5 27.9095 11.6941 27.7241 11.9333 27.7241H25.5111C25.7503 27.7241 25.9444 27.9095 25.9444 28.1379C25.9444 28.3663 25.7503 28.5517 25.5111 28.5517H12.3667V30.6207C12.3667 30.8483 12.5617 31.0345 12.8 31.0345H25.5111C25.7503 31.0345 25.9444 31.2198 25.9444 31.4483C25.9444 31.6767 25.7503 31.8621 25.5111 31.8621Z" fill="#7F56D9" stroke="#7F56D9" stroke-width="0.6"/>
<path d="M29.2667 17.7932H33.6C33.8392 17.7932 34.0334 17.6078 34.0334 17.3794C34.0334 17.151 33.8392 16.9656 33.6 16.9656H29.2667C29.0275 16.9656 28.8334 17.151 28.8334 17.3794C28.8334 17.6078 29.0275 17.7932 29.2667 17.7932Z" fill="#7F56D9" stroke="#7F56D9" stroke-width="0.6"/>
<path d="M31 34.3448H31.8667C32.1059 34.3448 32.3 34.1594 32.3 33.931C32.3 33.7026 32.1059 33.5172 31.8667 33.5172H31C30.7608 33.5172 30.5667 33.7026 30.5667 33.931C30.5667 34.1594 30.7608 34.3448 31 34.3448Z" fill="#7F56D9" stroke="#7F56D9" stroke-width="0.6"/>
<path fill-rule="evenodd" clip-rule="evenodd" d="M27.5334 36H35.3334C36.5285 36 37.5 35.0722 37.5 33.931V17.3793C37.5 16.238 36.5285 15.3103 35.3334 15.3103H27.5334C26.3382 15.3103 25.3667 16.238 25.3667 17.3793V33.931C25.3667 35.0722 26.3382 36 27.5334 36ZM26.2334 17.3793C26.2334 16.6949 26.8166 16.1379 27.5334 16.1379H35.3334C36.0501 16.1379 36.6334 16.6949 36.6334 17.3793V33.931C36.6334 34.6154 36.0501 35.1724 35.3334 35.1724H27.5334C26.8166 35.1724 26.2334 34.6154 26.2334 33.931V17.3793Z" fill="#7F56D9"/>
<path d="M35.3334 35.7H27.5334V36.3H35.3334V35.7ZM37.2 33.931C37.2 34.8937 36.376 35.7 35.3334 35.7V36.3C36.681 36.3 37.8 35.2508 37.8 33.931H37.2ZM37.2 17.3793V33.931H37.8V17.3793H37.2ZM35.3334 15.6103C36.376 15.6103 37.2 16.4166 37.2 17.3793H37.8C37.8 16.0594 36.681 15.0103 35.3334 15.0103V15.6103ZM27.5334 15.6103H35.3334V15.0103H27.5334V15.6103ZM25.6667 17.3793C25.6667 16.4166 26.4907 15.6103 27.5334 15.6103V15.0103C26.1857 15.0103 25.0667 16.0594 25.0667 17.3793H25.6667ZM25.6667 33.931V17.3793H25.0667V33.931H25.6667ZM27.5334 35.7C26.4907 35.7 25.6667 34.8937 25.6667 33.931H25.0667C25.0667 35.2508 26.1857 36.3 27.5334 36.3V35.7ZM27.5334 15.8379C26.6641 15.8379 25.9334 16.5163 25.9334 17.3793H26.5334C26.5334 16.8734 26.9691 16.4379 27.5334 16.4379V15.8379ZM35.3334 15.8379H27.5334V16.4379H35.3334V15.8379ZM36.9334 17.3793C36.9334 16.5163 36.2026 15.8379 35.3334 15.8379V16.4379C35.8976 16.4379 36.3334 16.8734 36.3334 17.3793H36.9334ZM36.9334 33.931V17.3793H36.3334V33.931H36.9334ZM35.3334 35.4724C36.2026 35.4724 36.9334 34.794 36.9334 33.931H36.3334C36.3334 34.4368 35.8976 34.8724 35.3334 34.8724V35.4724ZM27.5334 35.4724H35.3334V34.8724H27.5334V35.4724ZM25.9334 33.931C25.9334 34.794 26.6641 35.4724 27.5334 35.4724V34.8724C26.9691 34.8724 26.5334 34.4368 26.5334 33.931H25.9334ZM25.9334 17.3793V33.931H26.5334V17.3793H25.9334Z" fill="#7F56D9"/>
</svg>
