<svg width="47" height="48" viewBox="0 0 47 48" fill="none" xmlns="http://www.w3.org/2000/svg">
<rect x="0.5" width="46" height="48" rx="10" fill="#E0EAFF"/>
<path d="M32.4999 14.5H14.4999C14.2238 14.5 13.9999 14.7239 13.9999 15V26H32.9999V15C32.9999 14.7239 32.7761 14.5 32.4999 14.5Z" stroke="#4883FF"/>
<path d="M35 26.1176C35.2761 26.1176 35.5 25.8938 35.5 25.6176V14.5C35.4983 13.12 34.38 12.0017 33 12H14C12.62 12.0017 11.5017 13.12 11.5 14.5V28.5C11.5017 29.88 12.62 30.9983 14 31H19.5V33.2325L18.2225 34.0825C18.083 34.1756 17.9995 34.3323 18 34.5V35C18 35.5523 18.4477 36 19 36H28C28.5523 36 29 35.5523 29 35V34.5C29 34.3329 28.9165 34.1768 28.7775 34.084L27.5 33.2325V31.0882C27.5 30.8121 27.2761 30.5882 27 30.5882C26.7239 30.5882 26.5 30.8121 26.5 31.0882V33.5C26.5 33.6671 26.5835 33.8232 26.7225 33.916L28 34.7675V35H19V34.7675L20.2775 33.9175C20.417 33.8244 20.5005 33.6677 20.5 33.5V31H33C34.38 30.9983 35.4983 29.88 35.5 28.5V26C35.5 25.7239 35.2761 25.5 35 25.5H12.3824C12.1062 25.5 11.8824 25.7239 11.8824 26C11.8824 26.2761 12.1062 26.5 12.3824 26.5H34.5V28.5C34.5 29.3284 33.8284 30 33 30H14C13.1716 30 12.5 29.3284 12.5 28.5V14.5C12.5 13.6716 13.1716 13 14 13H33C33.8284 13 34.5 13.6716 34.5 14.5V25.6176C34.5 25.8938 34.7239 26.1176 35 26.1176Z" fill="#4883FF" stroke="#4883FF" stroke-width="0.4"/>
<path d="M21.3535 16.3523C21.1583 16.1571 20.8418 16.1571 20.6465 16.3523L17.6465 19.3523C17.4513 19.5476 17.4513 19.8641 17.6465 20.0593L20.6465 23.0593C20.8427 23.2488 21.1546 23.2461 21.3474 23.0532C21.5403 22.8604 21.543 22.5485 21.3535 22.3523L18.707 19.7058L21.3535 17.0593C21.5487 16.8641 21.5487 16.5476 21.3535 16.3523Z" fill="#4883FF"/>
<path d="M25.6465 23.0594C25.8417 23.2546 26.1582 23.2546 26.3535 23.0594L29.3535 20.0594C29.5487 19.8641 29.5487 19.5476 29.3535 19.3524L26.3535 16.3524C26.228 16.2224 26.0421 16.1703 25.8672 16.216C25.6924 16.2618 25.5559 16.3983 25.5101 16.5731C25.4644 16.7479 25.5165 16.9338 25.6465 17.0594L28.293 19.7059L25.6465 22.3524C25.4513 22.5476 25.4513 22.8641 25.6465 23.0594Z" fill="#4883FF"/>
</svg>
